<?xml version="1.0" encoding="UTF-8" standalone="no"?>
<!-- Created with Inkscape (http://www.inkscape.org/) -->

<svg
   xmlns:dc="http://purl.org/dc/elements/1.1/"
   xmlns:cc="http://creativecommons.org/ns#"
   xmlns:rdf="http://www.w3.org/1999/02/22-rdf-syntax-ns#"
   xmlns:svg="http://www.w3.org/2000/svg"
   xmlns="http://www.w3.org/2000/svg"
   xmlns:sodipodi="http://sodipodi.sourceforge.net/DTD/sodipodi-0.dtd"
   xmlns:inkscape="http://www.inkscape.org/namespaces/inkscape"
   width="210mm"
   height="297mm"
   viewBox="0 0 210 297"
   version="1.1"
   id="svg4902"
   inkscape:version="0.92.4 (unknown)"
   sodipodi:docname="fish2.svg">
  <defs
     id="defs4896" />
  <sodipodi:namedview
     id="base"
     pagecolor="#ffffff"
     bordercolor="#666666"
     borderopacity="1.0"
     inkscape:pageopacity="0.0"
     inkscape:pageshadow="2"
     inkscape:zoom="3.6203867"
     inkscape:cx="464.80085"
     inkscape:cy="868.63964"
     inkscape:document-units="mm"
     inkscape:current-layer="layer1"
     showgrid="false"
     inkscape:window-width="2560"
     inkscape:window-height="1312"
     inkscape:window-x="0"
     inkscape:window-y="54"
     inkscape:window-maximized="1" />
  <metadata
     id="metadata4899">
    <rdf:RDF>
      <cc:Work
         rdf:about="">
        <dc:format>image/svg+xml</dc:format>
        <dc:type
           rdf:resource="http://purl.org/dc/dcmitype/StillImage" />
        <dc:title></dc:title>
      </cc:Work>
    </rdf:RDF>
  </metadata>
  <g
     inkscape:label="Layer 1"
     inkscape:groupmode="layer"
     id="layer1">
    <path
       style="fill:#5599ff;stroke-width:0.26458332"
       id="path4990"
       d="m 73.833944,66.378084 c 0.3684,-0.308086 0.76146,-0.583213 1.15651,-0.855368 0.30139,-0.211421 0.61998,-0.394687 0.93849,-0.578517 0.25492,-0.157708 0.51914,-0.300845 0.78807,-0.43321 0.26998,-0.138954 0.52712,-0.299165 0.79715,-0.438399 0.27066,-0.152749 0.54918,-0.289563 0.83527,-0.410469 0.36519,-0.164849 0.73445,-0.319241 1.10512,-0.471289 0.43822,-0.177673 0.87851,-0.349938 1.32529,-0.504973 0.2543,-0.09218 0.51003,-0.178393 0.76316,-0.272714 0.12435,-0.01733 0.21931,-0.103093 0.33276,-0.147072 0.0726,-0.02815 0.14838,-0.04746 0.22208,-0.07267 0.2953,-0.0818 0.59368,-0.156104 0.8821,-0.260183 0.23691,-0.05791 0.46663,-0.140459 0.70227,-0.202004 0.21334,-0.08222 0.43037,-0.152942 0.64734,-0.225036 0.3087,-0.102426 0.62704,-0.175575 0.94765,-0.229275 0.3893,-0.07348 0.77673,-0.155514 1.16484,-0.234807 0.37636,-0.08886 0.75566,-0.166447 1.13563,-0.238659 0.26034,-0.05723 0.52894,-0.08767 0.7863,-0.157134 0.23895,-0.05045 0.47878,-0.101883 0.72027,-0.140094 0.33057,-0.05521 0.66489,-0.08579 0.99616,-0.135935 0.39544,-0.04726 0.79066,-0.09401 1.18602,-0.142917 0.32631,-0.07186 0.6601,-0.09674 0.98893,-0.150958 0.28972,-0.0615 0.5871,-0.06127 0.87901,-0.103444 0.31035,-0.05419 0.62532,-0.06802 0.93956,-0.07801 0.41427,-0.01312 0.82712,-0.05625 1.24123,-0.07824 0.36269,-0.01937 0.72598,-0.0227 1.08911,-0.02471 0.28617,-0.0021 0.57234,-0.0011 0.85851,-0.0013 0.32307,-0.0105 0.64333,0.03749 0.96479,0.0625 0.38249,0.01926 0.764,0.03055 1.14552,0.06455 0.409486,0.02273 0.816436,0.06773 1.224516,0.106738 0.42145,0.02981 0.84318,0.06488 1.26153,0.12491 0.39371,0.05521 0.78788,0.110098 1.17905,0.18143 0.39186,0.07547 0.78381,0.149375 1.17721,0.217043 0.34978,0.04437 0.69539,0.113707 1.04594,0.152286 0.36207,0.05125 0.72221,0.114633 1.08445,0.16452 0.36184,0.06622 0.72684,0.108498 1.08913,0.171458 0.27974,0.05178 0.56064,0.102759 0.839,0.162185 0.29696,0.06024 0.59179,0.131476 0.88667,0.201625 0.27607,0.04592 0.54745,0.113467 0.82504,0.150479 0.29506,0.0286 0.58669,0.0894 0.87124,0.171739 0.28995,0.09479 0.58467,0.171146 0.88138,0.241758 0.30917,0.0832 0.61429,0.18084 0.92308,0.265226 0.33317,0.105233 0.66658,0.210838 0.99714,0.324022 0.27372,0.08165 0.53671,0.194252 0.80857,0.280945 0.23335,0.0639 0.46708,0.126069 0.70295,0.180054 0.26925,0.08448 0.54154,0.157636 0.81181,0.238144 0.27142,0.09002 0.54118,0.180078 0.80775,0.28357 0.22363,0.112863 0.46632,0.177006 0.69783,0.270523 0.23276,0.07994 0.46341,0.167828 0.68607,0.272918 0.21297,0.09255 0.41925,0.199419 0.62867,0.299548 0.26648,0.125751 0.53461,0.246663 0.79813,0.378732 0.25875,0.102431 0.48886,0.260162 0.73468,0.387572 0.13218,0.05655 0.25761,0.124974 0.3785,0.20252 0.0789,0.02506 0.15307,0.06662 0.22548,0.107249 0.0574,0.0084 0.13165,0.112845 0.19023,0.09992 0.0693,0.05772 0.1558,0.08381 0.23557,0.124351 0.0987,0.02742 0.18048,0.08799 0.2692,0.137216 0.092,0.05427 0.161,0.138768 0.24583,0.202943 0.11572,0.07676 0.22763,0.158308 0.346,0.231111 0.0477,0.02765 0.0957,0.05232 0.13925,0.08613 0,0 -0.98397,1.015166 -0.98397,1.015166 v 0 c -0.0429,-0.0282 -0.0875,-0.05377 -0.13055,-0.0818 -0.11998,-0.07783 -0.23787,-0.158679 -0.35503,-0.240612 -0.0788,-0.06161 -0.14695,-0.137073 -0.23409,-0.187166 -0.0849,-0.0499 -0.16835,-0.100405 -0.262,-0.132771 -0.0745,-0.036 -0.15324,-0.06497 -0.22325,-0.108887 -0.0697,-0.03653 -0.13421,-0.08228 -0.20465,-0.117708 -0.0792,-0.03817 -0.15808,-0.07631 -0.23667,-0.115289 -0.11538,-0.07707 -0.23912,-0.138385 -0.36347,-0.199591 -0.24209,-0.131196 -0.47316,-0.28312 -0.72908,-0.387927 -0.26448,-0.129696 -0.53296,-0.250187 -0.79976,-0.374944 -0.20796,-0.101605 -0.41646,-0.202059 -0.6274,-0.297352 -0.22205,-0.100412 -0.44952,-0.188031 -0.67979,-0.267734 -0.23274,-0.08922 -0.47201,-0.161713 -0.69655,-0.271359 -0.26226,-0.10313 -0.53035,-0.187651 -0.79802,-0.275606 -0.26923,-0.07639 -0.53672,-0.15798 -0.80642,-0.232688 -0.23943,-0.05657 -0.47846,-0.115242 -0.71371,-0.187603 -0.26921,-0.0933 -0.53375,-0.199946 -0.8059,-0.285051 -0.32902,-0.110572 -0.65866,-0.220319 -0.99161,-0.318461 -0.30682,-0.08668 -0.61169,-0.180245 -0.92002,-0.261665 -0.29748,-0.07343 -0.59359,-0.150482 -0.88539,-0.244247 -0.28183,-0.07495 -0.56828,-0.129276 -0.8586,-0.158864 -0.27992,-0.04304 -0.55598,-0.107283 -0.83418,-0.15983 -0.29319,-0.07108 -0.58734,-0.139681 -0.88338,-0.197612 -0.27854,-0.05289 -0.5551,-0.115228 -0.83483,-0.161377 -0.3603,-0.06335 -0.72353,-0.107664 -1.08397,-0.170492 -0.36118,-0.05266 -0.7212,-0.112845 -1.08308,-0.160872 -0.35126,-0.04338 -0.69901,-0.110064 -1.0493,-0.1603 -0.39343,-0.06917 -0.78604,-0.141563 -1.1784,-0.216207 -0.39023,-0.06649 -0.78168,-0.125921 -1.17395,-0.179068 -0.41769,-0.05436 -0.8374,-0.08978 -1.25736,-0.121343 -0.407556,-0.04011 -0.814936,-0.07799 -1.223606,-0.105312 -0.38185,-0.03115 -0.76455,-0.03541 -1.1467,-0.06197 -0.31931,-0.02596 -0.6382,-0.06488 -0.95924,-0.05208 -0.28525,-5.29e-4 -0.5705,-7.93e-4 -0.85575,-5.29e-4 -0.36043,0.0024 -0.72094,0.0064 -1.08094,0.02572 -0.41543,0.02381 -0.82959,0.06727 -1.24557,0.07964 -0.31213,0.01373 -0.62332,0.03796 -0.93202,0.08793 -0.29235,0.03126 -0.58628,0.04955 -0.87568,0.105018 -0.33036,0.04561 -0.66102,0.088 -0.98964,0.145696 -0.39488,0.04815 -0.79031,0.0914 -1.18442,0.145169 -0.33252,0.0443 -0.66516,0.08605 -0.99598,0.142422 -0.23914,0.04523 -0.4786,0.09015 -0.71531,0.146833 -0.26195,0.05223 -0.52452,0.101942 -0.78735,0.149495 -0.37835,0.07304 -0.75611,0.14972 -1.13148,0.236847 -0.3892,0.08147 -0.77883,0.160613 -1.16946,0.234972 -0.31634,0.06168 -0.63081,0.137257 -0.93465,0.245951 -0.21811,0.07508 -0.43566,0.152119 -0.65516,0.222858 -0.2307,0.06916 -0.4638,0.129133 -0.69315,0.202639 -0.29259,0.09276 -0.58985,0.169646 -0.88211,0.263451 -0.18772,0.06901 -0.3631,0.165484 -0.55496,0.223798 -0.25032,0.09416 -0.50892,0.165288 -0.75849,0.261972 -0.44395,0.15667 -0.8825,0.327406 -1.31756,0.507299 -0.37192,0.153509 -0.73963,0.316161 -1.10763,0.478761 -0.28209,0.125563 -0.55559,0.269205 -0.82673,0.416777 -0.26786,0.144264 -0.52677,0.304506 -0.80034,0.438234 -0.26504,0.136428 -0.52548,0.281888 -0.7802,0.436769 -0.31459,0.183981 -0.62837,0.369017 -0.92607,0.579925 -0.39613,0.272788 -0.78683,0.554889 -1.14819,0.873119 0,0 0.83173,-1.130744 0.83173,-1.130744 z"
       inkscape:connector-curvature="0" />
    <path
       style="fill:#5599ff;stroke-width:0.26458332"
       id="path4994"
       d="m 80.4466,83.939037 c 0.34059,-0.218509 0.67325,-0.447868 1.04508,-0.610145 0.2306,-0.09907 0.44763,-0.226652 0.65905,-0.360934 0.20199,-0.138369 0.41773,-0.257966 0.63141,-0.377944 0.23603,-0.124317 0.48238,-0.22991 0.7069,-0.374904 0.17547,-0.0861 0.35225,-0.171545 0.53254,-0.247586 0.21589,-0.116893 0.45877,-0.169236 0.6885,-0.251251 0.18962,-0.07961 0.38623,-0.134599 0.57984,-0.201615 0.26091,-0.07021 0.51422,-0.163264 0.77691,-0.227823 0.22809,-0.07512 0.4624,-0.127301 0.68272,-0.224157 0.25853,-0.07079 0.50822,-0.169418 0.76809,-0.235186 0.30907,-0.08153 0.60476,-0.203062 0.91265,-0.287927 0.20778,-0.04801 0.41991,-0.09126 0.61925,-0.168241 0.23461,-0.06761 0.47533,-0.111038 0.71059,-0.17512 0.2765,-0.05785 0.54118,-0.158033 0.81293,-0.233508 0.22369,-0.08773 0.45972,-0.132439 0.68304,-0.221302 0.24583,-0.100592 0.50341,-0.165307 0.75991,-0.232529 0.2873,-0.08807 0.57077,-0.18205 0.86767,-0.2315 0.27514,-0.0664 0.55417,-0.110638 0.83161,-0.165352 0.27264,-0.04432 0.54628,-0.08616 0.81577,-0.147878 0.30986,-0.07738 0.6297,-0.08104 0.94467,-0.120605 0.36642,-0.05045 0.73582,-0.06908 1.10517,-0.0805 0.3772,-0.04138 0.7551,-0.07158 1.13418,-0.08814 0.33898,-0.01386 0.67832,-0.01529 1.01754,-0.0158 0.37231,-0.0073 0.74272,0.0016 1.11369,0.03233 0.39478,0.03657 0.79096,0.05069 1.18718,0.05928 0.40895,0.03699 0.81809,0.06792 1.22839,0.08494 0.35153,0.0098 0.70018,0.06057 1.05091,0.08543 0.36276,0.02906 0.72386,0.07308 1.08754,0.09498 0.36515,0.03411 0.72567,0.09934 1.08863,0.149323 0.39629,0.04788 0.79126,0.106275 1.18643,0.162957 0.47585,0.05994 0.95056,0.130895 1.42259,0.216075 0.46641,0.08453 0.93315,0.16652 1.40021,0.247459 0.38398,0.06947 0.76043,0.170471 1.13854,0.265129 0.37739,0.112736 0.76455,0.18443 1.14936,0.265567 0.40005,0.06785 0.79086,0.175969 1.18397,0.274111 0.42014,0.10582 0.8417,0.205867 1.26282,0.307798 0.34645,0.09364 0.69365,0.184316 1.03334,0.300656 0.33445,0.100524 0.66598,0.211241 1.00314,0.302546 0.20598,0.07361 0.41477,0.13725 0.6256,0.195157 0.2227,0.08069 0.45387,0.131273 0.67491,0.217289 0.19755,0.07521 0.40049,0.135813 0.59773,0.211526 0.22665,0.07969 0.44301,0.186426 0.65715,0.29487 0.23585,0.08957 0.46851,0.183505 0.69803,0.288224 0.17703,0.06357 0.34549,0.145423 0.50621,0.242801 0.13564,0.06152 0.26815,0.124687 0.40092,0.192524 0.11427,0.02882 0.21185,0.09076 0.31249,0.149079 0.14765,0.09525 0.30154,0.181798 0.45919,0.259551 0.15945,0.06355 0.29624,0.163198 0.4276,0.271312 0.12371,0.08866 0.25313,0.169997 0.37231,0.264453 0.11198,0.0744 0.23102,0.139407 0.33551,0.22465 0.0858,0.07107 0.14816,0.166558 0.23658,0.234196 0.0588,0.05385 0.1137,0.11198 0.16497,0.173059 0.0256,0.03134 0.006,0.0059 0.0422,0.08614 0,0 -1.09856,0.891008 -1.09856,0.891008 v 0 c 0.0163,0.0067 0.0326,0.01336 0.049,0.02003 -0.002,-0.0026 -0.003,-0.0052 -0.005,-0.0078 -0.0411,-0.05575 -0.0882,-0.10709 -0.13958,-0.153442 -0.0857,-0.07106 -0.15413,-0.158927 -0.2363,-0.233955 -0.10619,-0.08226 -0.22354,-0.147797 -0.33313,-0.225018 -0.12162,-0.09346 -0.2519,-0.175413 -0.37487,-0.267232 -0.12317,-0.102002 -0.2559,-0.187743 -0.40344,-0.251076 -0.15909,-0.08179 -0.3162,-0.167844 -0.4678,-0.262893 -0.0988,-0.05787 -0.20225,-0.101544 -0.3084,-0.144036 -0.13294,-0.07115 -0.27112,-0.129059 -0.40408,-0.199935 -0.15874,-0.09153 -0.32396,-0.167897 -0.49487,-0.234154 -0.22914,-0.107608 -0.46552,-0.19522 -0.69846,-0.293862 -0.21145,-0.104092 -0.42574,-0.203957 -0.64855,-0.28154 -0.19924,-0.07055 -0.39918,-0.139065 -0.59721,-0.213008 -0.21949,-0.07875 -0.44592,-0.133843 -0.66676,-0.208439 -0.20985,-0.05986 -0.41701,-0.126135 -0.62284,-0.198596 -0.33673,-0.09863 -0.67081,-0.20627 -1.00622,-0.309251 -0.33754,-0.110527 -0.6806,-0.202673 -1.02363,-0.294404 -0.42017,-0.105588 -0.8421,-0.203764 -1.26225,-0.309362 -0.39138,-0.09905 -0.78281,-0.197842 -1.18041,-0.269483 -0.38736,-0.0795 -0.77472,-0.159761 -1.15537,-0.267983 -0.37398,-0.09631 -0.74795,-0.192458 -1.12834,-0.261012 -0.46589,-0.08362 -0.93197,-0.165841 -1.39769,-0.250314 -0.47217,-0.0814 -0.94629,-0.150733 -1.42172,-0.210185 -0.39574,-0.05641 -0.79181,-0.110456 -1.18841,-0.160375 -0.35933,-0.0521 -0.71759,-0.112204 -1.07967,-0.143261 -0.3645,-0.02453 -0.72706,-0.06803 -1.09141,-0.09319 -0.34843,-0.02847 -0.6953,-0.0783 -1.0452,-0.0855 -0.40907,-0.02035 -0.81684,-0.05613 -1.22542,-0.08339 -0.39833,-0.0091 -0.79628,-0.02824 -1.19317,-0.06424 -0.36892,-0.02703 -0.73782,-0.02604 -1.1076,-0.02209 -0.3371,0.0013 -0.6743,0.0029 -1.01113,0.01791 -0.37938,0.01953 -0.75704,0.05684 -1.13562,0.08707 -0.36708,0.01418 -0.73359,0.0388 -1.09775,0.0889 -0.31359,0.0325 -0.62894,0.05439 -0.93602,0.13131 -0.27173,0.05389 -0.54483,0.09986 -0.81767,0.147479 -0.27686,0.05644 -0.55652,0.09773 -0.83168,0.162875 -0.29174,0.06169 -0.57308,0.159435 -0.86017,0.239207 -0.25429,0.07005 -0.50722,0.142957 -0.75214,0.241898 -0.22878,0.07513 -0.46164,0.136893 -0.68966,0.214508 -0.2708,0.08087 -0.53979,0.168735 -0.81599,0.230198 -0.23648,0.0558 -0.47373,0.110445 -0.70518,0.184923 -0.20551,0.05885 -0.41217,0.111654 -0.62028,0.16039 -0.30551,0.09272 -0.60455,0.206481 -0.91398,0.286639 -0.25488,0.07599 -0.50764,0.160705 -0.7588,0.247862 -0.22811,0.0808 -0.46157,0.143883 -0.69397,0.210973 -0.25942,0.0718 -0.51392,0.160063 -0.77225,0.235704 -0.19499,0.06033 -0.38379,0.137504 -0.57776,0.201094 -0.23172,0.07392 -0.46298,0.149903 -0.67999,0.261578 -0.17463,0.08195 -0.35367,0.156353 -0.51852,0.257387 -0.23229,0.129161 -0.47437,0.239553 -0.70634,0.369443 -0.21292,0.124094 -0.42594,0.248226 -0.63147,0.384336 -0.21661,0.126418 -0.43502,0.249391 -0.66737,0.345424 -0.3615,0.176525 -0.69453,0.403513 -1.02747,0.628229 0,0 0.84467,-1.120875 0.84467,-1.120875 z"
       inkscape:connector-curvature="0" />
    <path
       style="fill:#5599ff;stroke-width:0.26458332"
       id="path4998"
       d="m 75.43468,60.573034 c 0.41982,0.210298 0.84886,0.400603 1.27373,0.600191 0.2546,0.110707 0.50648,0.227089 0.75149,0.357198 0.12212,0.0998 0.26709,0.161877 0.40475,0.235977 0.13993,0.07849 0.2758,0.164409 0.41828,0.238379 0.22216,0.132003 0.46452,0.223065 0.69261,0.343797 0.21233,0.111069 0.42931,0.214743 0.63097,0.34477 0.20858,0.108199 0.41159,0.223909 0.63026,0.311158 0.27142,0.128418 0.55282,0.230767 0.83347,0.336121 0.31059,0.125471 0.61924,0.253228 0.92476,0.390539 0.24672,0.103748 0.50019,0.189264 0.74945,0.28616 0.25374,0.116509 0.51139,0.225819 0.77556,0.316592 0.26638,0.10005 0.5331,0.199673 0.80322,0.289235 0.27529,0.110789 0.55448,0.208642 0.8389,0.293708 0.25704,0.0994 0.51875,0.180433 0.7833,0.256355 0.32829,0.06704 0.65499,0.140812 0.98189,0.214519 0.29995,0.05269 0.58862,0.150969 0.88464,0.220168 0.27753,0.07994 0.55931,0.148947 0.84377,0.199781 0.28843,0.06209 0.57417,0.136946 0.86458,0.189196 0.36003,0.07816 0.72382,0.141372 1.08922,0.188651 0.46082,0.06489 0.91768,0.152664 1.37592,0.233023 0.47109,0.09691 0.94525,0.176189 1.41808,0.263428 0.3803,0.06319 0.75162,0.16815 1.1292,0.244445 0.34139,0.08058 0.68632,0.148003 1.03261,0.204182 0.31831,0.05419 0.64239,0.0407 0.96209,0.07626 0.34326,0.03006 0.68378,0.07949 1.02581,0.120168 0.37601,0.02676 0.7488,0.08195 1.12428,0.114708 0.40452,0.03412 0.80715,0.08323 1.21265,0.107561 0.4321,0.02172 0.86483,0.02267 1.29735,0.02461 0.45519,7.94e-4 0.91037,7.94e-4 1.36555,-9.3e-5 0.43291,1.33e-4 0.86582,-7.93e-4 1.29873,-0.0013 0.41551,-0.0045 0.83126,0.0113 1.24623,-0.01244 0.52897,-0.02432 1.05579,-0.07352 1.58354,-0.114832 0.58153,-0.02972 1.16132,-0.08246 1.74271,-0.114974 0.59271,-0.01249 1.18367,-0.04386 1.77505,-0.08399 0.48831,-0.02223 0.97626,-0.05903 1.46113,-0.121719 0.46028,-0.06068 0.91869,-0.140052 1.37241,-0.23854 0.37862,-0.07716 0.7599,-0.142852 1.1363,-0.230587 0.34901,-0.07919 0.69862,-0.154837 1.05135,-0.216083 0.38884,-0.08475 0.78057,-0.156848 1.1683,-0.246502 0.36231,-0.07858 0.72401,-0.161813 1.08257,-0.256323 0.35296,-0.07551 0.69768,-0.182284 1.04705,-0.2717 0.28811,-0.09313 0.57961,-0.176885 0.87379,-0.24891 0.3518,-0.09461 0.70222,-0.198863 1.04538,-0.321601 0.25273,-0.08914 0.50123,-0.191434 0.74661,-0.29891 0.1958,-0.09102 0.38671,-0.193635 0.58768,-0.273846 0.0318,-0.02564 0.22194,-0.05038 0.21298,-0.0951 0,0 -0.85575,1.128397 -0.85575,1.128397 v 0 c -0.0746,-0.0172 -0.15652,0.05861 -0.22731,0.07336 -0.19547,0.0903 -0.38886,0.185169 -0.58639,0.270804 -0.24874,0.101242 -0.49497,0.209698 -0.75176,0.289703 -0.34829,0.114159 -0.69846,0.223816 -1.05373,0.314346 -0.29304,0.07864 -0.58356,0.165706 -0.87476,0.25079 -0.34771,0.09167 -0.69449,0.186815 -1.04482,0.268341 -0.36082,0.0903 -0.72261,0.177194 -1.08659,0.253907 -0.39005,0.08286 -0.78065,0.163166 -1.17149,0.242231 -0.35116,0.06771 -0.70069,0.141989 -1.04931,0.221631 -0.37705,0.07893 -0.75583,0.149196 -1.13354,0.224722 -0.4576,0.09226 -0.91768,0.17505 -1.3813,0.230724 -0.48674,0.05598 -0.97535,0.09194 -1.46479,0.113959 -0.59099,0.03747 -1.18204,0.06012 -1.77382,0.08086 -0.58091,0.03473 -1.16061,0.08619 -1.74167,0.118538 -0.52973,0.04351 -1.0591,0.08918 -1.59006,0.115861 -0.41753,0.0172 -0.83547,0.0084 -1.25329,0.01021 -0.43239,-2.64e-4 -0.86478,-0.0011 -1.29717,-5.29e-4 -0.45542,-1.72e-4 -0.91083,0.0011 -1.36625,-1.19e-4 -0.43482,-0.0016 -0.86991,-0.0045 -1.30416,-0.02918 -0.4067,-0.02655 -0.81089,-0.07696 -1.21716,-0.108466 -0.37628,-0.03594 -0.751,-0.08616 -1.12779,-0.116964 -0.34139,-0.04222 -0.6824,-0.08516 -1.02513,-0.115483 -0.32299,-0.02543 -0.64844,-0.02722 -0.96841,-0.08441 -0.34708,-0.06091 -0.69361,-0.126728 -1.03652,-0.208098 -0.37445,-0.08142 -0.7452,-0.180194 -1.12298,-0.24597 -0.47271,-0.08554 -0.94494,-0.172569 -1.4166,-0.26385 -0.45686,-0.0812 -0.91328,-0.164822 -1.37326,-0.226984 -0.36835,-0.04998 -0.73522,-0.112379 -1.09901,-0.188968 -0.28942,-0.05668 -0.57559,-0.128719 -0.86421,-0.189412 -0.28604,-0.05577 -0.56998,-0.12401 -0.85026,-0.203809 -0.2936,-0.07409 -0.58313,-0.164676 -0.88107,-0.221043 -0.32908,-0.07556 -0.65998,-0.142087 -0.98897,-0.217475 -0.26612,-0.07402 -0.52587,-0.164462 -0.78567,-0.258233 -0.28443,-0.08895 -0.56398,-0.189558 -0.84213,-0.296145 -0.26962,-0.09268 -0.53752,-0.19022 -0.80429,-0.29083 -0.26398,-0.09532 -0.52285,-0.203782 -0.77915,-0.318101 -0.25266,-0.09484 -0.50737,-0.184777 -0.75463,-0.293388 -0.3013,-0.13888 -0.6086,-0.26225 -0.91709,-0.384273 -0.28282,-0.104564 -0.56352,-0.213257 -0.83838,-0.337709 -0.22406,-0.09467 -0.43751,-0.209508 -0.65107,-0.325559 -0.19918,-0.125746 -0.41066,-0.23013 -0.61892,-0.339754 -0.23027,-0.118589 -0.47283,-0.211633 -0.69821,-0.339842 -0.14034,-0.07704 -0.27722,-0.160089 -0.41677,-0.238416 -0.1398,-0.07146 -0.28148,-0.140279 -0.40604,-0.23727 -0.23962,-0.132289 -0.48816,-0.247539 -0.73718,-0.36108 -0.42566,-0.201723 -0.85249,-0.400841 -1.28038,-0.597739 0,0 0.95904,-1.022834 0.95904,-1.022834 z"
       inkscape:connector-curvature="0" />
    <path
       style="fill:#5599ff;stroke-width:0.26458332"
       id="path5000"
       d="m 78.020522,70.613191 c 0.42874,0.332402 0.87305,0.643906 1.31063,0.964385 0.46171,0.326549 0.9162,0.662861 1.38129,0.984602 0.42607,0.295611 0.89034,0.529114 1.35268,0.761455 0.37497,0.192945 0.77127,0.339492 1.16848,0.478975 0.34095,0.1049 0.68553,0.197885 1.02289,0.313952 0.27815,0.08428 0.54551,0.197313 0.81682,0.299919 0.27714,0.124346 0.55817,0.238641 0.84082,0.349723 0.30082,0.113329 0.61169,0.190191 0.92424,0.263131 0.33166,0.08787 0.65275,0.209974 0.98634,0.290542 0.3322,0.09292 0.66862,0.165859 1.00479,0.242004 0.34829,0.0694 0.69905,0.126037 1.04714,0.19635 0.37341,0.07643 0.74701,0.150984 1.1227,0.216008 0.42335,0.08635 0.84897,0.16088 1.27258,0.245663 0.38603,0.077 0.77175,0.154882 1.15876,0.227132 0.38463,0.05497 0.76795,0.116771 1.15506,0.15227 0.40051,0.04538 0.79798,0.110971 1.19742,0.163954 0.42514,0.07909 0.85233,0.144193 1.27885,0.214948 0.4931,0.07482 0.989148,0.128053 1.482998,0.197117 0.51801,0.07414 1.03618,0.146534 1.55479,0.216712 0.46264,0.04515 0.92324,0.108633 1.38609,0.151927 0.3725,0.03184 0.74653,0.03487 1.12011,0.03829 0.40196,-0.02936 0.80332,-0.06309 1.20613,-0.07875 0.41697,-0.01471 0.83423,-0.01442 1.2514,-0.01654 0.37654,-0.0062 0.7536,0.01209 1.12944,-0.01381 0.41426,-0.0236 0.82561,-0.07369 1.23805,-0.116684 0.42439,-0.0523 0.84576,-0.124328 1.26936,-0.181796 0.44874,-0.03911 0.89605,-0.0912 1.34554,-0.121975 0.4782,-0.01442 0.95377,-0.06592 1.43106,-0.09583 0.45662,-0.01119 0.91022,-0.06454 1.36565,-0.09486 0.43207,-0.05242 0.86518,-0.09073 1.29702,-0.144552 0.39349,-0.03234 0.77734,-0.126156 1.1649,-0.195535 0.32193,-0.06513 0.64058,-0.146304 0.96437,-0.20152 0.32584,-0.06466 0.64657,-0.150424 0.96801,-0.233611 0.29718,-0.06107 0.5892,-0.147418 0.87672,-0.243888 0.23856,-0.107143 0.48991,-0.176564 0.72476,-0.292266 0.21761,-0.08721 0.43694,-0.168783 0.65227,-0.261708 0.26815,-0.140777 0.55765,-0.231008 0.833,-0.3547 0.28691,-0.09849 0.56387,-0.221999 0.83441,-0.358534 0.24824,-0.115385 0.48357,-0.252976 0.73369,-0.36507 0.21696,-0.10347 0.41376,-0.241694 0.62026,-0.363006 0.17268,-0.108063 0.33185,-0.234029 0.49728,-0.352324 0.13556,-0.103706 0.26728,-0.209034 0.40644,-0.30743 0.0837,-0.05102 0.15977,-0.09982 0.23246,-0.166039 0,0 -0.84229,1.132443 -0.84229,1.132443 v 0 c -0.0781,0.05449 -0.16178,0.100343 -0.23684,0.159467 -0.13726,0.09924 -0.26364,0.213098 -0.40569,0.306073 -0.16623,0.118043 -0.32632,0.244967 -0.50465,0.345175 -0.20398,0.128587 -0.4127,0.25037 -0.63153,0.352211 -0.24506,0.118848 -0.48271,0.251846 -0.73028,0.36554 -0.27422,0.131688 -0.55647,0.244285 -0.84013,0.353899 -0.28012,0.114514 -0.56181,0.224353 -0.83504,0.355081 -0.21719,0.08756 -0.43527,0.173173 -0.6502,0.266015 -0.24205,0.10083 -0.49039,0.18528 -0.73495,0.279675 -0.29075,0.09085 -0.58415,0.172622 -0.88201,0.237067 -0.32356,0.08377 -0.6476,0.166433 -0.97632,0.227843 -0.32169,0.0632 -0.64123,0.137261 -0.96306,0.200004 -0.38791,0.07308 -0.77514,0.152355 -1.169,0.187505 -0.43329,0.05263 -0.86793,0.0925 -1.3019,0.139046 -0.45494,0.03374 -0.90899,0.07896 -1.36518,0.09334 -0.47676,0.03293 -0.9526,0.07779 -1.43027,0.09646 -0.44778,0.03489 -0.89435,0.08383 -1.34096,0.130691 -0.42395,0.06055 -0.84701,0.126976 -1.27229,0.178168 -0.41419,0.04464 -0.8281,0.09009 -1.24423,0.113448 -0.37806,0.01712 -0.75661,0.0056 -1.13497,0.0087 -0.4156,2.64e-4 -0.83131,0.0033 -1.24663,0.01976 -0.40452,0.01992 -0.80776,0.05782 -1.21237,0.07477 -0.37689,-0.003 -0.75426,-0.0094 -1.12961,-0.04676 -0.46236,-0.04906 -0.92338,-0.11058 -1.38567,-0.160081 -0.5186,-0.07151 -1.03714,-0.142922 -1.555508,-0.215953 -0.49551,-0.06637 -0.99236,-0.123153 -1.48671,-0.198141 -0.42672,-0.06773 -0.85289,-0.13729 -1.27887,-0.209619 -0.39726,-0.05584 -0.79356,-0.117983 -1.19255,-0.161046 -0.39028,-0.03925 -0.77809,-0.09862 -1.16545,-0.159742 -0.38669,-0.07416 -0.77272,-0.151046 -1.15866,-0.228849 -0.42329,-0.08213 -0.84647,-0.16455 -1.27035,-0.243629 -0.3767,-0.06647 -0.75184,-0.139819 -1.1267,-0.215685 -0.34997,-0.06601 -0.70055,-0.128699 -1.0497,-0.198827 -0.33813,-0.07346 -0.67395,-0.154567 -1.00826,-0.244065 -0.33133,-0.0867 -0.65295,-0.206163 -0.98548,-0.288819 -0.31761,-0.07717 -0.63406,-0.156826 -0.93936,-0.275492 -0.28274,-0.110183 -0.56141,-0.229566 -0.84045,-0.348692 -0.26883,-0.104431 -0.53763,-0.208274 -0.81236,-0.296759 -0.33811,-0.1133 -0.68108,-0.210788 -1.02099,-0.318476 -0.40179,-0.142441 -0.80081,-0.296365 -1.17932,-0.493805 -0.4662,-0.23748 -0.93325,-0.477899 -1.36301,-0.778156 -0.46622,-0.32217 -0.92181,-0.659138 -1.38374,-0.987372 -0.43836,-0.320275 -0.8799,-0.636214 -1.31982,-0.95436 0,0 0.97566,-1.006705 0.97566,-1.006705 z"
       inkscape:connector-curvature="0" />
    <path
       style="fill:#5599ff;stroke-width:0.26458332"
       id="path5002"
       d="m 78.22451,82.036161 c -0.20411,-0.258834 -0.39603,-0.527023 -0.5862,-0.796181 -0.0334,-0.04621 -0.0647,-0.09396 -0.098,-0.140272 -0.15359,-2.066763 0.90283,-1.099547 1.26006,-0.801523 0.23384,0.190632 0.47293,0.372247 0.72161,0.5432 0.34948,0.234257 0.70787,0.453715 1.07507,0.658932 0.34697,0.235915 0.69874,0.460742 1.06974,0.656915 0.40142,0.209682 0.81151,0.401444 1.22731,0.580678 0.44919,0.186018 0.91232,0.343554 1.37856,0.481751 0.47459,0.134337 0.9476,0.275376 1.42533,0.398134 0.46137,0.123267 0.92841,0.225116 1.3962,0.320924 0.4509,0.09451 0.90022,0.196721 1.35245,0.284742 0.46612,0.101436 0.93594,0.183822 1.39958,0.296479 0.45422,0.108043 0.91116,0.204467 1.36437,0.316698 0.4072,0.08714 0.81532,0.171265 1.22495,0.246494 0.48125,0.101402 0.96714,0.17607 1.45199,0.257212 0.49067,0.08245 0.98222,0.158485 1.47495,0.227801 0.56263,0.09547 1.13097,0.149902 1.69559,0.231921 0.62055,0.119798 1.24531,0.208817 1.8716,0.291486 0.67946,0.07681 1.35611,0.176154 2.0359,0.249981 0.59117,0.07195 1.18248,0.14437 1.77507,0.203888 0.525,0.07765 1.05359,0.119933 1.58348,0.143084 0.50191,0.0467 1.00466,0.07896 1.50839,0.09632 0.46407,-0.0019 0.92574,0.04509 1.38843,0.07388 0.40358,0.02906 0.80578,0.03365 1.20886,0.0016 0.36244,-0.01672 0.72094,-0.05995 1.08041,-0.10642 0.28444,-0.03615 0.56447,-0.102646 0.84664,-0.154022 0.409,-0.06536 0.81528,-0.144397 1.22647,-0.196049 0.50008,-0.08944 1.00631,-0.129757 1.51307,-0.154876 0.42339,-0.04101 0.84712,-0.07164 1.26835,-0.131046 0.35584,-0.05332 0.71401,-0.10015 1.0631,-0.188991 0.44324,-0.104876 0.89066,-0.189834 1.33588,-0.285309 0.45681,-0.08656 0.91304,-0.178551 1.36455,-0.289782 0.43619,-0.08714 0.86418,-0.20956 1.29649,-0.31337 0.36044,-0.09372 0.72062,-0.188674 1.07082,-0.316063 0.29118,-0.104931 0.58418,-0.205341 0.87141,-0.320442 0.22969,-0.06512 0.42409,-0.203703 0.63451,-0.309478 0.1801,-0.146214 0.38095,-0.261448 0.57008,-0.395034 0.16774,-0.132791 0.34141,-0.257124 0.50948,-0.389564 0.16898,-0.119573 0.31627,-0.261186 0.46052,-0.409255 -1.74078,1.67626 -0.99407,1.066705 -0.67501,0.636312 0.11143,-0.157421 0.23597,-0.304535 0.3559,-0.45525 0.0547,-0.07676 0.10386,-0.156268 0.1631,-0.22996 0.0387,-0.01273 0.0407,-0.02225 0.0523,-0.06153 0,0 1.11785,-0.865743 1.11785,-0.865743 v 0 c -0.0272,0.03117 -0.0229,0.05388 -0.0257,0.09498 -0.0728,0.05966 -0.14319,0.130181 -0.17824,0.218398 -0.11463,0.15671 -0.25105,0.294775 -0.3567,0.458057 -0.0519,0.06268 -0.0886,0.13058 -0.13723,0.194241 -0.32778,0.429464 -1.24261,0.358561 -1.14427,1.1497 -0.14856,0.143896 -0.30867,0.272706 -0.47397,0.396962 -0.17131,0.128386 -0.33786,0.263139 -0.51477,0.38382 -0.19432,0.129072 -0.383,0.267026 -0.5834,0.386012 -0.20787,0.115485 -0.41807,0.22434 -0.64575,0.296894 -0.29013,0.107556 -0.58015,0.215469 -0.87302,0.315391 -0.3543,0.119192 -0.7161,0.213164 -1.07859,0.303964 -0.4319,0.106765 -0.86189,0.221761 -1.29737,0.31338 -0.45305,0.104537 -0.90883,0.196485 -1.36528,0.284912 -0.44663,0.09275 -0.89322,0.185571 -1.33683,0.292166 -0.35436,0.0788 -0.71447,0.130963 -1.074,0.180051 -0.42297,0.05354 -0.84831,0.08403 -1.27312,0.11915 -0.50418,0.02752 -1.00635,0.07669 -1.50435,0.162076 -0.41052,0.05851 -0.81731,0.138303 -1.22609,0.207645 -0.28306,0.05631 -0.56591,0.118184 -0.85324,0.148402 -0.36053,0.04502 -0.7215,0.07803 -1.0843,0.09917 -0.40732,0.02619 -0.81428,0.01228 -1.22135,-0.01632 -0.46112,-0.03118 -0.92171,-0.07074 -1.38424,-0.07295 -0.50357,-0.02064 -1.00597,-0.05663 -1.50822,-0.09839 -0.53163,-0.02622 -1.06124,-0.07544 -1.58848,-0.149524 -0.59146,-0.06406 -1.18227,-0.13454 -1.77258,-0.208343 -0.6796,-0.07854 -1.35698,-0.175152 -2.03671,-0.252804 -0.62793,-0.08061 -1.25311,-0.175281 -1.87602,-0.289012 -0.56569,-0.07916 -1.13424,-0.13701 -1.69812,-0.228873 -0.49354,-0.07052 -0.98622,-0.145963 -1.47773,-0.229415 -0.4865,-0.07913 -0.9723,-0.161547 -1.45594,-0.256897 -0.41171,-0.07698 -0.82319,-0.156922 -1.23121,-0.251603 -0.45287,-0.110538 -0.9081,-0.211053 -1.36181,-0.318024 -0.46318,-0.108045 -0.93124,-0.192339 -1.39623,-0.29205 -0.45227,-0.09029 -0.90248,-0.190476 -1.35375,-0.285612 -0.46884,-0.09972 -0.93785,-0.200575 -1.40048,-0.326427 -0.47835,-0.126505 -0.9534,-0.265292 -1.42893,-0.401963 -0.46992,-0.143835 -0.93843,-0.29976 -1.39087,-0.491916 -0.41923,-0.1808 -0.83262,-0.37443 -1.23681,-0.586975 -0.37148,-0.197663 -0.72369,-0.423807 -1.07291,-0.658308 -0.37009,-0.208203 -0.73061,-0.431612 -1.08435,-0.666575 -0.2543,-0.170868 -0.49666,-0.35587 -0.73913,-0.542859 -0.0517,-0.04124 -0.1048,-0.08023 -0.15696,-0.120806 -0.0122,-0.0095 -0.0461,-0.01746 -0.036,-0.02905 0.92699,-1.055651 1.29233,-0.695011 0.94969,-1.028375 0.0229,0.04702 0.0542,0.09188 0.0821,0.136596 0.17821,0.273215 0.36318,0.543261 0.57476,0.79197 0,0 -1.00286,0.980905 -1.00286,0.980905 z"
       inkscape:connector-curvature="0" />
    <path
       style="fill:#5599ff;stroke-width:0.26458332"
       id="path5012"
       d="m 75.022639,58.279138 c 0.05552,-0.0552 0.110882,-0.110561 0.166563,-0.165597 0.393737,-0.389181 0.782061,-0.783932 1.181693,-1.167059 0.29428,-0.282125 0.721413,-0.559496 1.063707,-0.783412 0.54869,-0.352579 1.124567,-0.659078 1.697344,-0.96995 0.641499,-0.320262 1.280626,-0.643361 1.938931,-0.927912 0.650951,-0.30017 1.324713,-0.546518 1.995775,-0.797115 0.708113,-0.260795 1.422729,-0.50038 2.146385,-0.714188 0.657601,-0.203888 1.326044,-0.368577 1.992109,-0.541848 0.672772,-0.189819 1.353142,-0.351314 2.026202,-0.539666 0.75865,-0.221115 1.53223,-0.386549 2.30131,-0.566826 0.74383,-0.152701 1.4884,-0.302206 2.23877,-0.419173 0.69493,-0.112475 1.39223,-0.211092 2.08995,-0.304746 0.65072,-0.08132 1.30299,-0.147365 1.95508,-0.21645 0.57617,-0.06047 1.155332,-0.08041 1.734192,-0.09241 0.46599,-0.0031 0.93259,-0.01956 1.398,0.0077 0.52621,0.04657 1.05491,0.04951 1.58152,0.08695 0.55893,0.05509 1.12089,0.0589 1.68083,0.09598 0.57708,0.03132 1.15243,0.082 1.72852,0.126728 0.54033,0.03648 1.07911,0.094 1.61712,0.155424 0.52358,0.05508 1.04594,0.121001 1.56836,0.186172 0.54576,0.08634 1.09529,0.144553 1.64159,0.227232 0.54589,0.100329 1.09359,0.190743 1.63343,0.320549 0.4635,0.100497 0.91634,0.242698 1.37734,0.353238 0.44455,0.108364 0.88381,0.235149 1.32418,0.358738 0.4177,0.115146 0.83246,0.235509 1.24148,0.378871 0.40537,0.152551 0.806,0.318236 1.20412,0.488855 0.33232,0.141147 0.66407,0.280244 0.981,0.453935 0.2775,0.128191 0.53027,0.299971 0.79569,0.449622 0.2631,0.14451 0.51286,0.310388 0.75935,0.481219 0.22034,0.156141 0.43734,0.317934 0.66901,0.457052 0.19176,0.127175 0.38075,0.258035 0.57153,0.386638 0.19338,0.129844 0.38451,0.2604 0.56412,0.409155 0.19031,0.139625 0.37316,0.28826 0.56376,0.42741 0.17975,0.139242 0.3753,0.256617 0.55685,0.393245 0.12563,0.08673 0.26744,0.151373 0.36991,0.267332 0.0213,0.03311 0.0466,0.06251 0.0695,0.0944 0,0 -1.02653,0.973547 -1.02653,0.973547 v 0 c -0.007,-0.03255 -0.0431,-0.04443 -0.0505,-0.07789 -0.0863,-0.113469 -0.23796,-0.156607 -0.34309,-0.248573 -0.18136,-0.135798 -0.37543,-0.254067 -0.55464,-0.392936 -0.19253,-0.14089 -0.37756,-0.291235 -0.5692,-0.433385 -0.17701,-0.144692 -0.36606,-0.270811 -0.55517,-0.398904 -0.18908,-0.126881 -0.37509,-0.258077 -0.56528,-0.383339 -0.23313,-0.141843 -0.45098,-0.306977 -0.67347,-0.464698 -0.24392,-0.167847 -0.49172,-0.329496 -0.75121,-0.47253 -0.26266,-0.152355 -0.51814,-0.31677 -0.79214,-0.449051 -0.31378,-0.169521 -0.64222,-0.305835 -0.96937,-0.447106 -0.39512,-0.168802 -0.79054,-0.338281 -1.1947,-0.484426 -0.4079,-0.139401 -0.82186,-0.255243 -1.23645,-0.372779 -0.43781,-0.12622 -0.87661,-0.248111 -1.31934,-0.356259 -0.45933,-0.114102 -0.91246,-0.252346 -1.37474,-0.354767 -0.53679,-0.125545 -1.07985,-0.220261 -1.62289,-0.314466 -0.54626,-0.07925 -1.09483,-0.140976 -1.64062,-0.223577 -0.52192,-0.06555 -1.0441,-0.129505 -1.56715,-0.185445 -0.53618,-0.06216 -1.07365,-0.114268 -1.61198,-0.153766 -0.5752,-0.0462 -1.15014,-0.09294 -1.72634,-0.125635 -0.56093,-0.03223 -1.12319,-0.04192 -1.68295,-0.09459 -0.52685,-0.03304 -1.05506,-0.04239 -1.58157,-0.08297 -0.46283,-0.01763 -0.9262,-0.0061 -1.389262,-0.0032 -0.57467,0.01152 -1.14948,0.03359 -1.72129,0.09541 -0.65064,0.06878 -1.30153,0.134521 -1.95059,0.217282 -0.69628,0.09445 -1.39226,0.192257 -2.08584,0.304873 -0.74683,0.120989 -1.48955,0.265559 -2.22942,0.423512 -0.76823,0.17967 -1.54014,0.347492 -2.29725,0.570729 -0.67601,0.186045 -1.356107,0.357053 -2.032072,0.543388 -0.663377,0.172802 -1.329322,0.336307 -1.98424,0.539822 -0.721723,0.217098 -1.434449,0.460142 -2.140934,0.722722 -0.668648,0.252468 -1.339935,0.49979 -1.98904,0.800257 -0.655608,0.289033 -1.294109,0.613441 -1.932366,0.938717 -0.571111,0.309716 -1.142857,0.620297 -1.686668,0.976686 -0.278265,0.18901 -0.551133,0.382415 -0.810827,0.596736 -0.08058,0.0665 -0.308281,0.281448 -0.237164,0.204914 0.05088,-0.05475 1.180841,-1.191331 0.60602,-0.613023 0,0 -1.134978,0.824608 -1.134978,0.824608 z"
       inkscape:connector-curvature="0" />
    <path
       style="fill:#5599ff;stroke-width:0.26458332"
       id="path5014"
       d="m 78.360927,54.207616 c 0.47343,0.20575 0.9591,0.381579 1.43489,0.582226 0.46102,0.189979 0.91597,0.395396 1.38598,0.562491 0.42182,0.165851 0.86007,0.279424 1.29416,0.406659 0.3722,0.139256 0.7647,0.206267 1.14868,0.303017 0.36257,0.08339 0.71935,0.189243 1.08468,0.260435 0.40992,0.07677 0.81928,0.151095 1.22774,0.235849 0.43619,0.105053 0.87618,0.189799 1.31637,0.275405 0.4307,0.06633 0.85991,0.139319 1.28842,0.218699 0.40379,0.0911 0.8113,0.167683 1.22089,0.227756 0.44166,0.05125 0.88115,0.120764 1.31892,0.198298 0.54755,0.09066 1.09938,0.149397 1.64999,0.21718 0.61215,0.0619 1.22532,0.115782 1.83872,0.164457 0.5253,0.04007 1.05215,0.05021 1.57875,0.05518 0.51369,0.004 1.02741,0.0021 1.54111,0.0027 0.57913,2.3e-5 1.15825,2.64e-4 1.73738,5.29e-4 0.618123,0.01355 1.234873,-0.0315 1.852013,-0.05838 0.643,-0.04136 1.2839,-0.107143 1.92613,-0.157673 0.6878,-0.06385 1.37301,-0.150778 2.0592,-0.229235 0.67752,-0.0799 1.3522,-0.179506 2.02631,-0.283712 0.52603,-0.09693 1.0506,-0.205299 1.57118,-0.328441 0.42823,-0.137805 0.86824,-0.232241 1.29943,-0.359084 0.38149,-0.111459 0.7693,-0.200952 1.14991,-0.315106 0.34856,-0.118565 0.70009,-0.228489 1.04594,-0.354904 0.31077,-0.135057 0.63707,-0.22543 0.95692,-0.334381 0.27189,-0.09407 0.52265,-0.23519 0.78507,-0.350279 0.25174,-0.127513 0.51421,-0.229367 0.77031,-0.347305 0.25712,-0.121253 0.52542,-0.213638 0.78911,-0.318749 0.27438,-0.133435 0.55724,-0.246171 0.8379,-0.365342 0.27665,-0.08871 0.54288,-0.203348 0.80959,-0.317259 0.20495,-0.06832 0.39333,-0.177636 0.59831,-0.244398 0.19991,-0.09607 0.41165,-0.172768 0.62321,-0.241091 0.23914,-0.09813 0.48979,-0.162703 0.72605,-0.267883 0.21181,-0.09551 0.43161,-0.172289 0.64193,-0.271677 0.18902,-0.08344 0.39172,-0.136176 0.5761,-0.22982 0.14741,-0.05705 0.29209,-0.120647 0.44521,-0.160747 0.16924,-0.05759 0.33484,-0.125669 0.50456,-0.182033 0.10311,-0.02069 0.18538,-0.07473 0.2671,-0.137679 0.0135,-0.01035 0.0257,-0.02191 0.0365,-0.03504 0,0 -0.8455,1.136234 -0.8455,1.136234 v 0 c -0.0156,0.0079 -0.0308,0.01662 -0.046,0.02527 -0.0922,0.05014 -0.19036,0.08131 -0.29002,0.113424 -0.16809,0.06432 -0.3395,0.118928 -0.50937,0.178258 -0.14559,0.05228 -0.29046,0.107161 -0.43155,0.170783 -0.19179,0.07469 -0.38588,0.143968 -0.57414,0.227388 -0.21487,0.09048 -0.43033,0.179597 -0.64551,0.269306 -0.24206,0.09129 -0.48904,0.168461 -0.73053,0.261369 -0.20919,0.07851 -0.4189,0.155149 -0.62306,0.24602 -0.1962,0.08375 -0.39243,0.167439 -0.59091,0.245658 -0.26631,0.114636 -0.53869,0.212825 -0.80987,0.315243 -0.28299,0.115565 -0.5594,0.245457 -0.84112,0.363799 -0.26437,0.09964 -0.52578,0.206209 -0.7829,0.323464 -0.25698,0.114512 -0.51646,0.223451 -0.76923,0.347316 -0.26073,0.125926 -0.52267,0.248695 -0.79798,0.340402 -0.32125,0.100399 -0.63862,0.21109 -0.95208,0.334008 -0.34951,0.120263 -0.69918,0.240022 -1.05234,0.34925 -0.38253,0.105275 -0.7667,0.204615 -1.14845,0.312806 -0.43374,0.119745 -0.87066,0.22774 -1.30311,0.352182 -0.52273,0.11681 -1.04696,0.229642 -1.57545,0.317238 -0.6741,0.101073 -1.34908,0.195278 -2.02601,0.275656 -0.68785,0.08107 -1.37516,0.167444 -2.06515,0.22887 -0.64343,0.05372 -1.28604,0.117292 -1.93072,0.155278 -0.618973,0.02801 -1.237703,0.06999 -1.857723,0.05564 -0.57982,5.29e-4 -1.15964,0.0011 -1.73946,0.0021 -0.51459,0.0013 -1.02919,0.0016 -1.54376,-0.0024 -0.52809,-0.0075 -1.0564,-0.01987 -1.58287,-0.06519 -0.61461,-0.05144 -1.2293,-0.103855 -1.84268,-0.168013 -0.55384,-0.06509 -1.1082,-0.127096 -1.65861,-0.217991 -0.43862,-0.07303 -0.87837,-0.139115 -1.31974,-0.193344 -0.41024,-0.06469 -0.81883,-0.140917 -1.22425,-0.231092 -0.4282,-0.08086 -0.85843,-0.14786 -1.28806,-0.220195 -0.44125,-0.08397 -0.88014,-0.177183 -1.31826,-0.276431 -0.40857,-0.0852 -0.8197,-0.152982 -1.22921,-0.233092 -0.36575,-0.07681 -0.72526,-0.179235 -1.08897,-0.264941 -0.38602,-0.09507 -0.77791,-0.169958 -1.15204,-0.307949 -0.43593,-0.128288 -0.87422,-0.24901 -1.29785,-0.415361 -0.47011,-0.173077 -0.92851,-0.375457 -1.3909,-0.567933 -0.47653,-0.201629 -0.96084,-0.38289 -1.44161,-0.573948 0,0 0.9523,-1.029761 0.9523,-1.029761 z"
       inkscape:connector-curvature="0" />
    <path
       style="fill:#5599ff;stroke-width:0.26458332"
       id="path5022"
       d="m 78.75424,75.117393 c 0.588741,-0.381714 1.176233,-0.763654 1.780735,-1.120196 0.817326,-0.4563 1.641602,-0.899408 2.481815,-1.312177 0.851623,-0.407612 1.713501,-0.792236 2.583144,-1.15961 0.699335,-0.292174 1.423081,-0.517166 2.149517,-0.730287 0.635753,-0.215305 1.283563,-0.392147 1.927128,-0.582094 0.619575,-0.191265 1.254451,-0.328102 1.889437,-0.457004 0.727459,-0.166471 1.464451,-0.281086 2.202254,-0.389856 0.820942,-0.111022 1.644603,-0.199424 2.466946,-0.29885 0.810504,-0.103986 1.627164,-0.137435 2.443324,-0.156384 0.75465,-0.014 1.50945,-0.01416 2.2642,-0.01484 0.66612,0.0067 1.32689,0.08872 1.98722,0.167452 0.66531,0.09459 1.32797,0.205544 1.98497,0.346993 0.62856,0.141033 1.2557,0.286223 1.87847,0.451239 0.59912,0.142494 1.16798,0.376735 1.73877,0.602707 0.49645,0.227084 0.99217,0.455647 1.48904,0.681845 0.43744,0.189026 0.87256,0.38309 1.3037,0.586073 0.39485,0.18247 0.78195,0.37809 1.15755,0.59731 0.40114,0.228476 0.81188,0.437179 1.20215,0.684557 0.40761,0.266713 0.81995,0.525814 1.22848,0.791104 0.39243,0.269489 0.77681,0.549793 1.1722,0.814996 0.40183,0.250888 0.79806,0.510654 1.20476,0.753703 0.31576,0.172299 0.62591,0.349287 0.9174,0.560363 0,0 -0.97083,1.002964 -0.97083,1.002964 v 0 c -0.28986,-0.206211 -0.59782,-0.380135 -0.90819,-0.553501 -0.40737,-0.245919 -0.80556,-0.506576 -1.20863,-0.759391 -0.39578,-0.263628 -0.77788,-0.54628 -1.17107,-0.813689 -0.4075,-0.265652 -0.8195,-0.524137 -1.22725,-0.789408 -0.39039,-0.244239 -0.80055,-0.451144 -1.19983,-0.679831 -0.37288,-0.215913 -0.75826,-0.406776 -1.14851,-0.589362 -0.43024,-0.202935 -0.86432,-0.39728 -1.30044,-0.587248 -0.49361,-0.226838 -0.98576,-0.456837 -1.48109,-0.679865 -0.56565,-0.224513 -1.1304,-0.453734 -1.72471,-0.593503 -0.62094,-0.162761 -1.24608,-0.307158 -1.87227,-0.448178 -0.65426,-0.137541 -1.3136,-0.248105 -1.9761,-0.337965 -0.65562,-0.07778 -1.31232,-0.154993 -1.97361,-0.158221 -0.7525,-0.0013 -1.50509,-0.0028 -2.25747,0.01238 -0.812861,0.02215 -1.625838,0.05923 -2.432952,0.164135 -0.822047,0.0975 -1.644952,0.18829 -2.464909,0.302622 -0.737634,0.11135 -1.473284,0.233855 -2.200918,0.400005 -0.6325,0.131083 -1.263546,0.273682 -1.880995,0.464944 -0.643041,0.188135 -1.288166,0.369761 -1.924683,0.57938 -0.721175,0.214542 -1.43935,0.441534 -2.133236,0.734695 -0.866516,0.365921 -1.725455,0.749162 -2.572237,1.158944 -0.838743,0.417621 -1.66381,0.861679 -2.478277,1.324903 -0.608781,0.36489 -1.201165,0.754502 -1.794018,1.144545 0,0 0.849015,-1.116393 0.849015,-1.116393 z"
       inkscape:connector-curvature="0" />
    <path
       style="fill:#000000;stroke-width:0.26458332"
       id="path5092"
       d="m 113.72323,62.999981 c 0.32671,-0.102076 0.64674,-0.214498 0.98791,-0.254595 0.19652,-0.03222 0.35791,0.0222 0.51278,0.138546 0.10873,0.09447 0.20257,0.206357 0.2811,0.326988 0.0664,0.137687 0.13324,0.274246 0.20521,0.409086 0.0659,0.126494 0.14128,0.247623 0.19684,0.379219 0.0602,0.119901 0.1025,0.246613 0.1462,0.373081 0.0309,0.125608 0.064,0.250264 0.097,0.375394 0.0324,0.132183 0.0388,0.268425 0.044,0.40383 0.003,0.124283 0.003,0.248635 0.003,0.372952 -1.7e-4,0.105296 0.007,0.209359 -0.0188,0.312073 -0.019,0.09246 -0.0527,0.180224 -0.0978,0.262954 -0.0508,0.08195 -0.11001,0.159411 -0.17078,0.234368 -0.72136,0.71306 -0.0568,0.05844 -0.0865,0.08627 -0.83613,0.782301 0.48973,-0.459494 -0.33569,0.322802 -0.0151,0.01434 -0.0322,0.0266 -0.0482,0.0399 -0.0923,0.06762 -0.18842,0.133017 -0.28718,0.19123 -0.0798,0.03984 -0.15048,0.0931 -0.23197,0.129392 -0.0774,0.02641 -0.15922,0.02773 -0.24007,0.02957 -0.0825,0.0013 -0.16499,2.65e-4 -0.24748,4.8e-5 -0.10136,0.0091 -0.19618,-0.02756 -0.29436,-0.04644 -0.10489,-0.03219 -0.20332,-0.07692 -0.30237,-0.123415 -0.0927,-0.05041 -0.17425,-0.117258 -0.25913,-0.179107 -0.0843,-0.05533 -0.16185,-0.119809 -0.23643,-0.187487 -0.0785,-0.06999 -0.15229,-0.143012 -0.21345,-0.228663 -0.0645,-0.09162 -0.1209,-0.190312 -0.16336,-0.294071 -0.048,-0.08914 -0.0911,-0.179906 -0.11467,-0.278607 -0.0154,-0.08461 -0.0167,-0.170788 -0.0175,-0.256518 -7e-5,-0.08471 5.2e-4,-0.169424 7.9e-4,-0.254135 0.0164,-0.075 0.0403,-0.149559 0.0655,-0.222372 0.0307,-0.06225 0.0516,-0.12863 0.0888,-0.187341 0.0258,-0.0461 0.0542,-0.08986 0.0879,-0.130588 0.0242,-0.04344 0.0474,-0.08503 0.0763,-0.12574 0.0464,-0.04793 0.0874,-0.100396 0.13039,-0.151249 0.0272,-0.03253 0.0562,-0.06333 0.0858,-0.09363 0.0393,-0.04497 0.0669,-0.09847 0.10315,-0.145528 0.0975,-0.106834 0.19851,-0.201933 0.30738,-0.301723 0.0212,-0.01939 0.0497,-0.01749 0.0731,-0.0337 0.0197,-0.03666 0.0677,-0.03146 0.088,-0.06111 0.0387,-0.05044 0.0982,-0.04924 0.14941,-0.07463 0.0443,-0.02858 0.0895,-0.04594 0.1406,-0.05694 0.034,-0.0074 0.0691,-0.0057 0.10365,-0.0056 0.0493,1.98e-4 0.0986,2.64e-4 0.14791,5.29e-4 0.0534,-0.03471 0.11587,-0.05118 0.17812,-0.06141 0.0689,-0.02003 0.119,-0.0011 0.18138,0.02519 0.05,0.02836 0.10835,0.02429 0.15982,0.046 0.0579,0.03097 0.10477,0.079 0.15069,0.125219 0.0584,0.05328 0.10733,0.110572 0.13871,0.183433 0.0134,0.0696 0.0456,0.131228 0.0723,0.196194 0.0212,0.05988 0.0268,0.12324 0.031,0.186156 0.003,0.0711 0.002,0.142301 0.001,0.213442 -1.8e-4,0.08562 -2.6e-4,0.171243 -2.6e-4,0.256865 0,0.05992 -1e-5,0.119835 -5e-5,0.179753 -0.0138,0.07015 -0.0407,0.136639 -0.0577,0.206229 -0.008,0.05551 -0.0195,0.10681 -0.0444,0.157414 -0.0256,0.04241 -0.034,0.09093 -0.0578,0.134178 -0.0284,0.03434 -0.0406,0.07555 -0.0577,0.115546 -0.11389,0.128831 -0.22232,0.266732 -0.36804,0.361998 -0.008,0.0046 -0.0307,0.02037 -0.0242,0.01376 0.38733,-0.392604 0.0231,-0.01881 -0.12115,0.107233 -0.0446,0.03896 0.0282,-0.02169 -0.0358,0.01895 -0.0147,0.0093 -0.0489,0.04964 -0.0363,0.03755 0.0566,-0.05462 0.2291,-0.215611 0.16906,-0.16475 -0.085,0.07202 -0.16275,0.152233 -0.24413,0.228348 -0.0433,0.04732 -0.0798,0.07738 -0.14407,0.07639 -0.0271,0.03219 -0.0624,0.04988 -0.10204,0.06208 -0.0248,0.006 -0.0509,0.0028 -0.0763,0.0021 -0.027,-7.94e-4 -0.0541,-7.94e-4 -0.0811,-0.0011 -0.0395,0.005 -0.0661,-0.0064 -0.10002,-0.0259 -0.0525,-0.02715 -0.1002,-0.06254 -0.14378,-0.102751 -0.0359,-0.03759 -0.0694,-0.0778 -0.0967,-0.122002 -0.052,-0.0546 -0.0816,-0.123992 -0.12074,-0.186772 -0.0345,-0.03744 -0.0588,-0.0796 -0.0765,-0.127093 -0.009,-0.0342 -0.0109,-0.06983 -0.0113,-0.105089 1e-4,-0.04098 5.3e-4,-0.08196 5.3e-4,-0.122942 -0.006,-0.06158 0.0204,-0.116972 0.041,-0.173429 0.012,-0.04959 0.0436,-0.08792 0.0709,-0.129421 0.0207,-0.04569 0.0313,-0.09243 0.0609,-0.133781 0.0215,-0.04163 0.0443,-0.07951 0.0722,-0.117224 0.46378,-0.470024 0.1991,-0.19867 0.0707,-0.07809 -0.0145,0.0136 0.0239,-0.03184 0.0379,-0.04592 0.37562,-0.377809 0.14839,-0.143412 0.26125,-0.259984 0.0272,-0.02363 0.0649,-0.05116 0.10182,-0.03302 0.005,-0.02622 0.0345,-0.04277 0.0535,-0.06122 0.0378,-0.0038 0.0756,-0.0052 0.11368,-0.0057 0.0436,-0.0056 0.0717,0.03204 0.10884,0.04873 0.0447,0.01191 0.0725,0.02622 0.0939,0.06837 0.0228,0.05879 0.0465,0.116631 0.0639,0.177726 0.0164,0.05419 0.0201,0.110752 0.0216,0.166986 -0.0111,0.06728 -0.045,0.124889 -0.0579,0.192138 -0.0104,0.06513 -0.0135,0.131054 -0.0151,0.196898 -2.6e-4,0.01426 -2.2e-4,0.02858 -5.3e-4,0.04284 -0.0427,0.24502 -0.22402,0.174781 -0.33997,0.273256 -0.0204,0.01693 -0.0503,0.0104 -0.076,0.0092 -0.0228,-0.0011 -0.0456,-0.0021 -0.0683,-0.0032 0,0 0.1909,-0.221213 0.1909,-0.221213 v 0 c 0.0226,0.0011 0.0451,0.0021 0.0677,0.0028 0.0258,9.5e-5 0.042,-0.0037 0.0617,-0.02077 0.10239,-0.05722 0.24982,-0.117904 -0.0572,0.150976 -10e-4,-0.01487 -10e-4,-0.02981 -5.3e-4,-0.04472 0.001,-0.06692 0.003,-0.133927 0.0126,-0.200311 0.01,-0.06837 0.0316,-0.126108 0.0613,-0.187904 -8e-4,-0.05414 -0.002,-0.109032 -0.0168,-0.16152 -0.0162,-0.05985 -0.0383,-0.11816 -0.0609,-0.174072 -0.0151,-0.0374 -0.0435,-0.04052 -0.0797,-0.05439 -0.033,-0.01741 -0.0585,-0.04557 -0.0985,-0.03936 -0.0314,7.93e-4 -0.0725,-0.0031 -0.0971,0.019 -0.0224,0.01976 -0.0448,0.04626 -0.0768,0.04232 -0.0304,0.01008 -0.0551,0.02934 -0.0775,0.05218 -0.0695,0.06594 -0.12166,0.116049 0.14443,-0.150535 0.0142,-0.01426 -0.0235,0.03291 -0.0374,0.04749 -0.0791,0.08288 -0.16049,0.163637 -0.23957,0.246573 -0.0551,0.05777 0.11171,-0.114035 0.16756,-0.171055 -0.0278,0.04076 -0.0596,0.06793 -0.0712,0.118469 -0.0353,0.0399 -0.0513,0.07818 -0.0642,0.129493 -0.0192,0.04592 -0.0628,0.07584 -0.0734,0.12641 -0.0201,0.05431 -0.0505,0.107233 -0.0474,0.165502 -5e-5,0.04091 -2.6e-4,0.08181 -5.3e-4,0.122722 -2.5e-4,0.03265 5.3e-4,0.06532 0.005,0.09773 0.0154,0.04652 0.0375,0.08663 0.0717,0.122354 0.0408,0.06192 0.0674,0.133818 0.12143,0.18741 0.0245,0.04249 0.0577,0.07982 0.0907,0.116001 0.0422,0.03848 0.0882,0.07182 0.13894,0.09785 0.0296,0.01574 0.0561,0.01834 0.0894,0.01601 0.0271,2.64e-4 0.0542,5.29e-4 0.0812,0.0011 0.0231,1.35e-4 0.0466,0.0013 0.068,-0.009 0.0381,-0.01664 0.0675,-0.04901 0.10882,-0.0564 0.0557,-0.007 0.0877,-0.05516 0.13164,-0.0858 -0.3914,0.416205 -0.0133,-0.01897 0.14586,-0.121656 0.0159,-0.01056 0.0924,-0.08269 0.0504,-0.03713 -0.35726,0.387316 -0.0539,0.02135 0.0961,-0.08255 0.19292,-0.134194 -0.26413,0.28784 -0.0817,0.08444 0.0124,-0.01386 0.0263,-0.02647 0.0394,-0.0397 0.0364,-0.02352 0.0218,-0.08456 0.0602,-0.112347 0.0279,-0.04277 0.0388,-0.08669 0.0588,-0.132842 0.0276,-0.04958 0.0461,-0.09447 0.0489,-0.151726 0.0157,-0.06865 0.0346,-0.136046 0.062,-0.201083 -5e-5,-0.05992 -7e-5,-0.11984 2e-5,-0.17976 1.3e-4,-0.0857 2.7e-4,-0.171398 5.3e-4,-0.257093 8e-5,-0.0706 5.3e-4,-0.141216 -5.3e-4,-0.21181 -0.003,-0.06031 -0.007,-0.121055 -0.0245,-0.179163 -0.0259,-0.06539 -0.0617,-0.125706 -0.0721,-0.196193 -0.0271,-0.07101 -0.0754,-0.123926 -0.13077,-0.175009 -0.0431,-0.04313 -0.0865,-0.08932 -0.14174,-0.116626 -0.053,-0.0173 -0.1109,-0.01841 -0.1607,-0.04678 -0.0576,-0.02477 -0.10605,-0.03121 -0.16831,-0.01392 -0.0632,0.01389 -0.12066,0.04133 -0.18255,0.05797 -0.0493,-1.14e-4 -0.0985,-5.29e-4 -0.14774,-2.64e-4 -0.0331,5.29e-4 -0.0664,5.29e-4 -0.0985,0.0099 -0.0489,0.01315 -0.0914,0.03818 -0.13701,0.05959 -0.0543,0.01823 -0.10238,0.03614 -0.14254,0.08013 -0.0337,0.01595 -0.0615,0.0366 -0.0924,0.05764 -0.0367,0.01548 -0.0806,0.04768 -0.0698,0.03581 0.31907,-0.353536 0.17365,-0.176686 0.10375,-0.103132 -0.046,0.03541 -0.0691,0.09983 -0.10317,0.14533 -0.0297,0.03003 -0.0598,0.05974 -0.0871,0.0921 -0.0437,0.05 -0.081,0.105844 -0.13226,0.148688 -0.0288,0.04347 -0.0614,0.07533 -0.0745,0.128153 -0.0347,0.03966 -0.0673,0.07945 -0.0906,0.127154 -0.0358,0.05927 -0.0635,0.119131 -0.0922,0.183197 -0.0299,0.0691 -0.0408,0.145212 -0.0723,0.214098 -2.3e-4,0.08463 -7.9e-4,0.169254 -7.9e-4,0.253881 2.6e-4,0.0841 7.9e-4,0.168521 0.0133,0.251878 0.0204,0.09815 0.0629,0.187921 0.11132,0.275326 0.04,0.102335 0.0961,0.198945 0.15875,0.288967 0.0594,0.08439 0.13216,0.155427 0.20895,0.224158 0.074,0.06686 0.15085,0.130426 0.23423,0.185388 0.0832,0.06104 0.16373,0.126413 0.25516,0.175181 0.0968,0.04568 0.19371,0.08923 0.297,0.118705 0.0965,0.01958 0.19038,0.05218 0.29031,0.0426 0.0822,2.65e-4 0.16451,0.0011 0.24674,-5.29e-4 0.0783,-0.0028 0.15786,-0.0054 0.2309,-0.03717 0.0791,-0.03879 0.15066,-0.091 0.22921,-0.131059 0.0968,-0.06091 0.19465,-0.122023 0.28369,-0.193802 0.0159,-0.01344 0.0618,-0.05575 0.0478,-0.0403 -0.0515,0.05692 -0.21681,0.217379 -0.16069,0.164997 0.0846,-0.07897 0.16145,-0.16601 0.24622,-0.244816 0.0937,-0.08711 -0.72375,0.729636 0.0885,-0.08418 0.0548,-0.05249 -0.10589,0.10864 -0.15883,0.162959 0.062,-0.07342 0.12029,-0.151299 0.17315,-0.230883 0.0519,-0.0764 0.0827,-0.166764 0.10294,-0.256477 0.0291,-0.100938 0.0262,-0.201469 0.0238,-0.306345 2.6e-4,-0.124058 7.9e-4,-0.248139 -0.002,-0.372176 -0.004,-0.133665 -0.009,-0.268205 -0.0397,-0.399031 -0.032,-0.124775 -0.0678,-0.24796 -0.0955,-0.373788 -0.0431,-0.126076 -0.0847,-0.252478 -0.1449,-0.371776 -0.0538,-0.131482 -0.12976,-0.251315 -0.19483,-0.377296 -0.0713,-0.134274 -0.13998,-0.269034 -0.20365,-0.407178 -0.0758,-0.11825 -0.16774,-0.227502 -0.2738,-0.319667 -0.15059,-0.111935 -0.30626,-0.156604 -0.49556,-0.124539 -0.33931,0.04279 -0.65855,0.156511 -0.98371,0.258648 0,0 0.18149,-0.226885 0.18149,-0.226885 z"
       inkscape:connector-curvature="0" />
    <path
       style="fill:#000000;stroke-width:0.26458332"
       id="path5122"
       d="m 113.00726,82.142985 c 0.20698,-0.177522 0.43772,-0.31891 0.66883,-0.460894 0.12332,-0.06952 0.25474,-0.125724 0.39175,-0.161366 0.12462,-0.01273 0.24037,-0.06006 0.36147,-0.08776 0.10032,-0.02323 0.20381,-0.02519 0.30629,-0.02739 0.1058,-0.02741 0.21134,-0.05003 0.32019,-0.06135 0.0965,-0.0096 0.19359,-0.01159 0.29053,-0.0123 0.1047,-2.65e-4 0.20941,2.62e-4 0.31411,2.64e-4 0.11764,-5.29e-4 0.23603,0.02832 0.34755,0.06482 0.0918,0.02722 0.17611,0.06812 0.26138,0.110662 0.0559,0.05115 0.12447,0.08187 0.18261,0.12955 0.0573,0.03917 0.11053,0.08689 0.15688,0.138771 0.0501,0.06138 0.097,0.125304 0.14075,0.19149 0.0281,0.07191 0.0749,0.133673 0.10548,0.204245 0.0457,0.06338 0.0683,0.137361 0.099,0.207971 0.0368,0.07184 0.0521,0.151238 0.0795,0.226218 0.0397,0.07428 0.0576,0.15385 0.0669,0.236749 0.0218,0.0889 0.0512,0.175279 0.0674,0.265547 0.0144,0.07146 0.0161,0.138255 -0.004,0.208365 -0.0323,0.09566 -0.0417,0.195953 -0.0687,0.293039 -0.0216,0.09376 -0.0483,0.184134 -0.085,0.273021 -0.0217,0.06471 -0.055,0.123909 -0.0857,0.184592 -0.0584,0.14605 -0.19871,0.243377 -0.3058,0.349826 0.3989,-0.386178 -0.0668,0.07498 -0.20186,0.200928 -0.054,0.04056 -0.1008,0.08817 -0.16019,0.121753 -0.0628,0.03722 -0.118,0.08384 -0.18141,0.120883 -0.0654,0.05087 -0.1389,0.08664 -0.21567,0.116665 -0.0542,0.04605 -0.12034,0.06031 -0.18814,0.07466 -0.0681,0.03235 -0.13918,0.05716 -0.21286,0.07258 -0.0689,0.01553 -0.1424,-0.0013 -0.20873,0.02222 -0.0683,0.0214 -0.13852,0.05791 -0.2106,0.04355 -0.0711,-0.02685 -0.146,-0.03879 -0.22107,-0.04773 -0.0681,0.0027 -0.12153,-0.01667 -0.18171,-0.04515 -0.0539,-0.024 -0.10879,-0.02889 -0.1604,-0.05897 -0.0639,-0.02416 -0.12406,-0.05328 -0.18589,-0.08273 -0.0686,-0.03761 -0.12904,-0.08662 -0.1875,-0.13811 -0.0416,-0.03877 -0.0631,-0.09449 -0.0929,-0.142589 -0.0415,-0.05272 -0.0815,-0.105891 -0.11948,-0.16115 -0.0309,-0.05425 -0.0676,-0.104341 -0.10654,-0.153029 -0.0309,-0.0512 -0.0666,-0.09885 -0.0889,-0.154866 -0.036,-0.04931 -0.0659,-0.09332 -0.0816,-0.153226 -0.0294,-0.06893 -0.0586,-0.135025 -0.0738,-0.208806 -0.011,-0.06636 -0.0137,-0.133575 -0.0149,-0.200692 -5.3e-4,-0.03047 -1.1e-4,-0.06094 7e-5,-0.09141 1.7e-4,-0.02771 2.6e-4,-0.05541 2.6e-4,-0.08312 0.006,-0.04412 0.0408,-0.07448 0.0569,-0.114528 0.013,-0.03116 0.0132,-0.06491 0.0206,-0.09725 0.0228,-0.02923 0.0412,-0.06055 0.0569,-0.09408 0.012,-0.03125 0.0362,-0.05491 0.0585,-0.07913 0.0233,-0.03848 0.029,-0.08282 0.054,-0.12215 0.0241,-0.04517 0.0425,-0.09166 0.071,-0.134572 0.0245,-0.0443 0.0588,-0.08173 0.0851,-0.124759 0.0315,-0.04002 0.0622,-0.08041 0.0899,-0.123254 0.0229,-0.03519 0.0513,-0.06564 0.0751,-0.100351 0.0923,-0.114848 0.21046,-0.203991 0.3157,-0.305504 0.0232,-0.02863 0.0349,-0.03304 0.0696,-0.03608 0.0219,-0.03742 0.0664,-0.058 0.10568,-0.07333 0.0187,-0.007 0.0387,-0.0021 0.0582,-0.0019 0.004,9e-5 0.009,0.0033 0.0111,2.64e-4 0.003,-0.0042 -0.003,-0.01122 -1.1e-4,-0.01564 0.0118,-0.01879 0.0546,-0.03471 0.0742,-0.04023 0.0436,-0.01371 0.0893,-0.015 0.13461,-0.01678 0.0275,-7.93e-4 0.0549,-1.4e-4 0.0824,4.8e-5 0.0556,0.0105 0.0648,-0.02159 0.10768,-0.04898 0.0469,-0.01796 0.0955,-0.02352 0.14518,-0.02487 0.0327,-5.3e-4 0.0654,2.64e-4 0.0981,5.29e-4 0.0385,5.29e-4 0.0769,5.29e-4 0.1154,5.29e-4 0.0734,-0.0092 0.13515,0.01106 0.20264,0.03658 0.0648,0.04664 0.12902,0.0933 0.19888,0.132069 0.0725,0.04277 0.14531,0.08482 0.21769,0.128061 0.0686,0.04559 0.11861,0.109106 0.17679,0.165145 0.0494,0.0315 0.0675,0.08477 0.0948,0.132514 0.033,0.05729 0.0505,0.121939 0.067,0.18555 0.0107,0.03441 0.01,0.07035 0.0102,0.105979 -1e-5,0.05671 -2.6e-4,0.113424 -5.2e-4,0.170137 0.006,0.08699 -0.006,0.169786 -0.0306,0.253079 -0.0162,0.07958 -0.0431,0.154512 -0.0704,0.230651 -0.0158,0.07869 -0.0564,0.142195 -0.10253,0.206261 -0.0345,0.0672 -0.0799,0.125008 -0.12954,0.181412 -0.0802,0.0774 -0.16199,0.153249 -0.2407,0.232198 -0.0554,0.05559 0.11207,-0.11 0.17079,-0.162076 0.016,-0.01418 -0.0234,0.03619 -0.0387,0.05101 -0.23553,0.227105 -0.15624,0.168097 -0.27723,0.254849 -0.033,0.03025 -0.0615,0.03778 -0.10441,0.03992 -0.0148,0.03 -0.0566,0.0462 -0.0858,0.06362 -0.0204,0.01275 -0.0478,0.0078 -0.0717,0.0081 -0.0124,2.65e-4 -0.0249,-7.94e-4 -0.0373,-5.29e-4 -0.0219,-1.27e-4 -0.0438,-1.03e-4 -0.0658,-1.64e-4 -0.0362,-3.2e-5 -0.0723,-6.6e-5 -0.10845,-1.9e-5 -0.0615,0.0021 -0.11929,-0.02746 -0.17693,-0.04733 -0.0644,-0.0091 -0.1197,-0.02992 -0.17522,-0.06316 -0.0279,-0.02365 -0.0597,-0.03031 -0.0949,-0.03521 -0.0265,-0.01402 -0.0524,-0.04098 -0.0789,-0.06011 -0.0225,-0.02529 -0.0325,-0.05214 -0.0617,-0.07243 -0.0296,-0.04065 -0.0433,-0.08695 -0.0745,-0.127206 -0.0401,-0.03761 -0.0729,-0.08053 -0.10813,-0.12196 -0.0348,-0.0286 -0.0604,-0.05664 -0.0761,-0.09922 -0.0104,-0.03167 -0.0106,-0.06553 -0.0113,-0.09856 -2.7e-4,-0.01849 2.6e-4,-0.03695 5.3e-4,-0.05543 1.7e-4,-0.02715 2.3e-4,-0.0543 2.2e-4,-0.08145 5e-5,-0.0412 8e-5,-0.08239 5e-5,-0.123592 -0.003,-0.03991 0.002,-0.07227 0.0264,-0.104492 0.0875,-0.103962 0.1891,-0.193087 0.2875,-0.287594 0.007,-0.0063 0.028,-0.02339 0.0213,-0.01722 -0.19032,0.174532 -0.22096,0.228809 -0.16131,0.133937 0.0832,-0.07302 0.16525,-0.147463 0.24971,-0.219064 0.0216,-0.01275 0.0294,-0.01577 0.0471,-0.0311 0.004,-0.0035 0.0149,-0.01516 0.0111,-0.01143 -0.17547,0.171323 -0.22751,0.229714 -0.15087,0.145135 0.11865,-0.14227 0.20842,-0.235773 0.39205,-0.237461 0.0265,-0.0037 0.0533,0.0051 0.0795,0.0037 0.021,5.29e-4 0.042,5.29e-4 0.0629,5.29e-4 0.0428,-0.0088 0.0518,0.01622 0.0801,0.04026 0.035,0.01635 0.0561,0.04612 0.085,0.07046 0.0269,0.01929 0.0526,0.03925 0.077,0.06164 0.034,0.03012 0.0497,0.07546 0.059,0.118819 0.005,0.03425 0.006,0.06889 0.006,0.103473 -3e-5,0.02977 -2.7e-4,0.05954 -5.3e-4,0.08931 -4e-5,0.014 -5e-5,0.02801 -4e-5,0.04201 7.9e-4,0.01447 -8e-4,0.02824 -0.003,0.04253 -0.11251,0.09373 -0.20317,0.231793 -0.33203,0.312335 -0.0128,0.0083 -0.025,7.94e-4 -0.0395,2.49e-4 -0.0359,-7.94e-4 -0.0718,-0.0011 -0.10776,-0.0013 -0.027,-1.06e-4 -0.0541,-1.03e-4 -0.0811,-4e-5 -0.0252,-0.01114 -0.0243,-0.03525 -0.0249,-0.0602 -2e-5,-0.02408 5.3e-4,-0.04816 5.3e-4,-0.07224 -0.0104,-0.155572 0.18482,-0.224018 0.29827,-0.312148 0.0374,-0.02466 0.0747,-0.04981 0.114,-0.07137 0,0 -0.17789,0.231804 -0.17789,0.231804 v 0 c -0.0379,0.02299 -0.0752,0.04705 -0.11144,0.07256 -0.18575,0.120436 0.15769,-0.299614 0.0993,-0.110408 -1.9e-4,0.024 -8e-5,0.04799 -7.9e-4,0.07198 -2.7e-4,0.0254 -0.002,0.03942 -0.007,0.02782 0.027,1.04e-4 0.054,1.96e-4 0.0811,2.65e-4 0.0361,2.01e-4 0.0722,5.29e-4 0.10823,0.0013 0.0175,2.27e-4 0.0144,-0.0024 0.0254,-0.01164 0.0862,-0.06425 0.24843,-0.228838 -0.0776,0.09629 0.0193,-0.0068 0.0145,-0.01058 0.0143,-0.02825 6e-5,-0.01408 1.1e-4,-0.02813 1.7e-4,-0.0422 1.1e-4,-0.02977 1.4e-4,-0.05953 5.3e-4,-0.08929 1.7e-4,-0.03333 5.3e-4,-0.0667 -0.003,-0.0999 -0.004,-0.03764 -0.017,-0.07883 -0.0456,-0.104643 -0.0242,-0.02201 -0.0502,-0.04111 -0.0762,-0.06089 -0.0291,-0.02484 -0.0508,-0.05298 -0.0855,-0.07084 -0.0258,-0.02336 -0.0261,-0.0305 -0.0647,-0.02596 -0.0213,-1.09e-4 -0.0426,-5.29e-4 -0.0639,-0.0013 -0.0258,-0.0031 -0.0519,-0.0029 -0.0779,-0.003 -0.0292,5.29e-4 -0.10068,0.02882 -0.0875,0.0028 0.15281,-0.301871 0.19438,-0.240136 0.11973,-0.160213 -0.0457,0.0516 -0.57823,0.578596 -0.15888,0.113942 -0.11321,0.138454 -0.47219,0.50668 -0.0967,0.119746 0.0168,-0.01733 -0.0762,0.07332 -0.0486,0.05367 -0.0299,0.02791 -0.0459,0.04506 -0.0398,0.08767 -3e-5,0.04117 10e-6,0.08235 5e-5,0.123523 -4e-5,0.02719 5e-5,0.05438 -1.1e-4,0.08157 -1e-4,0.01839 1.9e-4,0.03678 -7.9e-4,0.05515 -2.7e-4,0.03048 -0.001,0.06179 0.005,0.09166 0.0122,0.04099 0.0353,0.06367 0.0682,0.09111 0.0359,0.0412 0.068,0.0855 0.10916,0.12292 0.03,0.03822 0.049,0.07801 0.0687,0.121229 0.0283,0.0208 0.0456,0.04543 0.0619,0.07258 0.0226,0.01662 0.0456,0.04247 0.0689,0.05087 0.0375,0.0072 0.0724,0.01852 0.1027,0.04266 0.0539,0.0315 0.10991,0.04658 0.17084,0.05922 0.0552,0.0191 0.11021,0.04541 0.16984,0.0407 0.0362,4.8e-5 0.0723,5e-6 0.10849,5e-6 0.022,-2.3e-5 0.044,1.35e-4 0.066,2.52e-4 0.0121,2.64e-4 0.0242,2.64e-4 0.0363,-2.65e-4 0.0225,-0.0011 0.0421,-0.0027 0.0601,-0.01751 0.0313,-0.01924 0.0612,-0.04519 0.096,-0.05541 0.0367,-0.0054 0.0628,-0.02735 0.0921,-0.04922 0.0985,-0.07168 0.0236,-0.02 -0.13407,0.149971 -0.0144,0.01553 0.0268,-0.03288 0.0412,-0.04843 0.0773,-0.08357 0.15911,-0.162904 0.23664,-0.246269 0.055,-0.05913 -0.11268,0.115705 -0.16901,0.173559 0.0555,-0.04953 0.0999,-0.110792 0.13221,-0.178007 0.0466,-0.06228 0.094,-0.120938 0.10805,-0.199204 0.0246,-0.07725 0.0596,-0.148601 0.0709,-0.229942 0.0261,-0.08125 0.0442,-0.160398 0.0359,-0.246393 6e-5,-0.05663 2.5e-4,-0.113266 5.3e-4,-0.169897 -1e-5,-0.03354 0.003,-0.06791 -0.006,-0.100629 -0.0148,-0.06121 -0.0305,-0.123709 -0.0609,-0.179178 -0.0282,-0.04425 -0.0406,-0.09767 -0.0895,-0.127247 -0.0564,-0.05471 -0.10467,-0.116705 -0.17184,-0.160599 -0.0722,-0.04299 -0.14476,-0.08502 -0.21714,-0.127489 -0.0683,-0.03861 -0.1311,-0.0846 -0.19572,-0.128927 -0.0647,-0.02392 -0.12524,-0.03689 -0.19485,-0.02966 -0.0386,2.6e-5 -0.0772,1.43e-4 -0.11581,-5.29e-4 -0.0323,-2.65e-4 -0.0645,-0.0011 -0.0968,2.64e-4 -0.0461,0.0028 -0.0921,0.01064 -0.13221,0.03514 -0.0406,0.0311 -0.07,0.04452 -0.12188,0.03787 -0.027,-1.85e-4 -0.0541,-5.29e-4 -0.0811,0.0011 -0.0431,0.0024 -0.0867,0.0057 -0.12693,0.02291 -0.0317,0.01783 -0.0567,0.05096 -0.0943,0.04836 -0.0177,-5.6e-5 -0.0332,-1.4e-5 -0.0484,0.0099 -0.0393,0.02019 -0.0712,0.05216 -0.11131,0.06876 -0.0236,0.0066 -0.0368,0.03172 -0.0562,0.04641 -0.20689,0.188423 0.20161,-0.210101 0.0912,-0.10395 -0.0291,0.02893 -0.0455,0.06927 -0.0772,0.09718 -0.0263,0.04306 -0.0522,0.0895 -0.0909,0.122177 -0.0241,0.04705 -0.0595,0.08114 -0.0833,0.126979 -0.0307,0.04248 -0.0571,0.08353 -0.0709,0.134739 -0.0309,0.03962 -0.0483,0.07461 -0.0514,0.125378 -0.022,0.02275 -0.0469,0.04603 -0.0644,0.07121 -0.0139,0.03339 -0.027,0.07369 -0.0552,0.09649 -0.0258,0.02053 -0.01,0.06269 -0.024,0.09289 -0.0119,0.04203 -0.0315,0.07569 -0.0628,0.107103 -5e-5,0.02775 4e-5,0.05551 -1.8e-4,0.08326 -2e-4,0.03036 -5.3e-4,0.06072 -5.3e-4,0.09109 5.3e-4,0.06578 0.002,0.131625 0.0113,0.196895 0.0135,0.07406 0.04,0.140104 0.0729,0.207719 0.0136,0.0606 0.0412,0.102105 0.0794,0.150746 0.0182,0.05472 0.0548,0.09867 0.0825,0.148011 0.0392,0.04933 0.0773,0.09949 0.10791,0.154754 0.0377,0.05598 0.0784,0.108945 0.12043,0.16192 0.0285,0.0458 0.0494,0.0984 0.0869,0.136575 0.0563,0.04982 0.11484,0.09715 0.18164,0.132565 0.0621,0.02984 0.12418,0.05709 0.18742,0.08402 0.0506,0.02764 0.10802,0.02977 0.15877,0.05745 0.0573,0.02666 0.11099,0.03864 0.17483,0.03912 0.075,0.0099 0.14872,0.02495 0.22102,0.04754 0.0702,0.0013 0.13526,-0.03299 0.20213,-0.0506 0.0692,-0.01278 0.14053,-0.0057 0.20958,-0.02159 0.0732,-0.01775 0.14188,-0.0479 0.21288,-0.07257 0.0668,-0.0159 0.12665,-0.04061 0.18447,-0.07774 0.0753,-0.0317 0.14529,-0.07188 0.21188,-0.119245 0.062,-0.03847 0.1172,-0.08625 0.18141,-0.121148 0.0555,-0.03651 0.10393,-0.08351 0.15551,-0.125155 0.009,-0.0084 0.16886,-0.165198 0.0841,-0.07726 -0.0532,0.05518 -0.10752,0.109294 -0.16143,0.163788 -0.0114,0.01151 0.0225,-0.02318 0.0338,-0.03479 0.0817,-0.08428 0.16329,-0.168587 0.24493,-0.252881 -0.35613,0.358691 -0.12706,0.16096 -0.0966,0.06473 0.0306,-0.06108 0.0662,-0.118245 0.0872,-0.183074 0.0373,-0.08852 0.069,-0.175775 0.0872,-0.270594 0.0292,-0.09698 0.0384,-0.196451 0.0685,-0.292976 0.0209,-0.06779 0.0284,-0.127206 0.012,-0.198297 -0.0143,-0.09125 -0.0429,-0.178499 -0.0685,-0.267039 -0.007,-0.08079 -0.0215,-0.158914 -0.0617,-0.230762 -0.0303,-0.07329 -0.0409,-0.154045 -0.0785,-0.225165 -0.0325,-0.06997 -0.051,-0.146336 -0.0996,-0.208563 -0.0276,-0.07027 -0.0769,-0.128564 -0.10163,-0.200319 -0.0426,-0.06533 -0.0891,-0.127714 -0.1379,-0.188328 -0.0452,-0.05103 -0.0977,-0.09685 -0.15359,-0.135506 -0.0565,-0.04598 -0.12334,-0.0761 -0.17788,-0.125167 -0.0838,-0.04203 -0.16766,-0.08085 -0.25782,-0.107767 -0.11013,-0.03372 -0.22499,-0.06187 -0.3408,-0.05901 -0.1047,-1.7e-4 -0.2094,-2.65e-4 -0.3141,1.21e-4 -0.0961,0.0011 -0.1924,0.0035 -0.28807,0.014 -0.1091,0.0131 -0.21424,0.04123 -0.32222,0.05983 -0.10109,0.0029 -0.20295,0.0063 -0.30151,0.03129 -0.12009,0.03041 -0.2373,0.07103 -0.3606,0.08812 -0.13455,0.03872 -0.2643,0.09522 -0.38511,0.166058 -0.23239,0.139806 -0.45752,0.288824 -0.66725,0.461909 0,0 0.17489,-0.232084 0.17489,-0.232084 z"
       inkscape:connector-curvature="0" />
    <path
       style="fill:#000000;stroke-width:0.26458332"
       id="path5130"
       d="m 84.009368,54.128804 c 0.24022,-0.151263 0.50816,-0.240454 0.76965,-0.344329 0.12786,-0.05522 0.26082,-0.09073 0.39881,-0.106405 0.11202,-0.01275 0.22425,0.01323 0.32965,0.05037 0.11735,0.03594 0.23131,0.08026 0.34787,0.118504 0.10251,0.04371 0.19941,0.09922 0.30241,0.14147 0.0925,0.04794 0.17831,0.107201 0.26274,0.168156 0.0694,0.05409 0.1495,0.09464 0.21483,0.153791 0.0586,0.0403 0.10441,0.09385 0.14998,0.147659 0.0486,0.05414 0.0979,0.106905 0.13806,0.168259 0.0417,0.07545 0.0901,0.146717 0.14445,0.213522 0.0511,0.05252 0.0677,0.123422 0.0781,0.193614 -10e-4,0.0677 0.0343,0.125203 0.0559,0.187039 0.0159,0.04058 0.02,0.08345 0.022,0.12655 0.001,0.04422 7.9e-4,0.08846 7.9e-4,0.132686 0.006,0.0437 -0.0143,0.07231 -0.0396,0.10487 -0.0205,0.04184 -0.0315,0.08479 -0.0597,0.122696 -0.0264,0.04196 -0.0447,0.08734 -0.0727,0.128722 -0.0309,0.0518 -0.0646,0.101658 -0.094,0.15439 -0.0152,0.0406 -0.0388,0.073 -0.0661,0.106084 -0.10682,0.127048 -0.2204,0.253791 -0.35578,0.351102 -0.25237,0.242311 0.62756,-0.615862 -0.13831,0.138785 -0.0483,0.01545 -0.0788,0.03638 -0.12074,0.06028 -0.0264,0.01947 -0.0479,0.02389 -0.0793,0.02574 -0.026,0.043 -0.0722,0.07592 -0.12275,0.07819 -0.0523,0.0016 -0.10324,-0.0083 -0.15342,0.008 -0.0596,0.02442 -0.1207,0.04507 -0.1847,0.05384 -0.0476,0.0066 -0.0958,0.0069 -0.1438,0.0072 -0.0352,-7.2e-5 -0.0705,-2.65e-4 -0.10572,-5.29e-4 -0.0303,-6.7e-5 -0.0606,-1.06e-4 -0.0908,-1.22e-4 -0.0523,8.5e-5 -0.10293,0.0042 -0.15312,-0.0113 -0.0499,-0.02207 -0.0981,-0.04359 -0.15136,-0.0559 -0.0506,-0.0011 -0.0892,-0.0063 -0.13268,-0.03232 -0.0516,-0.02511 -0.0978,-0.05072 -0.13925,-0.09172 -0.0522,-0.05974 -0.0838,-0.132942 -0.12791,-0.19889 -0.0496,-0.04489 -0.0599,-0.116792 -0.0982,-0.16743 -0.0333,-0.04018 -0.0547,-0.08413 -0.0678,-0.134269 -0.0114,-0.04854 -0.01,-0.09899 -0.01,-0.148521 -7e-5,-0.05331 2.4e-4,-0.106622 2.6e-4,-0.159935 1.5e-4,-0.04003 1.8e-4,-0.08005 1.9e-4,-0.120079 -3e-5,-0.03512 3e-5,-0.07023 -2e-5,-0.105351 0,-0.02853 2e-5,-0.05706 -3e-5,-0.0856 -3e-5,-0.02156 3e-5,-0.04314 0,-0.06471 -5.2e-4,-0.02904 -0.003,-0.05602 0.0138,-0.08103 0.0347,-0.0478 0.0735,-0.09283 0.10833,-0.140758 0.003,-0.0042 0.005,-0.0089 0.009,-0.01257 0.0783,-0.07962 0.15656,-0.159236 0.23664,-0.237019 0.0303,-0.02947 0.0794,-0.0413 0.10191,-0.07539 0.21793,-0.162817 -0.20084,0.234561 -0.0916,0.09954 0.1316,-0.181436 0.20924,-0.195088 0.3502,-0.27336 0.0303,-0.02082 0.0667,-0.02204 0.10229,-0.02532 0.0495,-0.01667 0.10051,-0.04176 0.15454,-0.05611 0.0612,-0.01225 0.12341,-0.01566 0.18565,-0.01744 0.0571,-5.29e-4 0.1142,-1.4e-4 0.1713,8e-6 0.0661,-0.01026 0.11098,0.0093 0.16736,0.03797 0.05,0.02389 0.0944,0.05867 0.13825,0.09228 0.0357,0.01188 0.0567,0.0476 0.0888,0.066 0.0524,0.0335 0.1059,0.06037 0.14023,0.113443 0.0256,0.03743 0.0583,0.06232 0.0771,0.105997 0.006,0.04687 0.0467,0.06949 0.0705,0.105283 0.0213,0.03852 0.0232,0.08243 0.025,0.125376 10e-4,0.03774 8e-4,0.07549 5.3e-4,0.113233 -2.5e-4,0.03665 -2.6e-4,0.0733 -2.6e-4,0.109948 -8e-5,0.02871 -2e-5,0.05741 -7e-5,0.08612 -2e-5,0.02529 2e-5,0.05058 8e-5,0.07586 -0.15579,-0.01847 -0.18669,0.262565 -0.33416,0.293042 -0.10152,7.94e-4 0.12861,-0.132418 0.16803,-0.166049 0.0608,-0.05188 -0.0269,0.03321 -0.0449,0.06855 -0.007,0.0306 -0.23596,0.312389 -0.31751,0.239268 -0.009,-0.0056 -0.007,0.01929 -0.003,0.01585 0.0627,-0.05185 0.11845,-0.111633 0.1796,-0.16532 0.008,-0.007 -0.0117,0.01812 -0.0198,0.025 -0.24521,0.207846 -0.15763,0.16638 -0.2889,0.223355 -0.0301,0.02495 -0.0639,0.03573 -0.10155,0.04411 -0.0418,-0.0027 -0.0604,0.01987 -0.0962,0.03971 -0.0504,0.04462 -0.11123,0.07128 -0.17305,0.09595 -0.0434,0.01042 -0.0875,0.01251 -0.13184,0.01288 -0.0353,-4.5e-5 -0.0707,-5.29e-4 -0.106,-7.94e-4 -0.0285,-2.01e-4 -0.057,-2.17e-4 -0.0855,-1.93e-4 -0.01,3.2e-5 -0.0196,6.3e-5 -0.0294,8e-6 -0.0295,-0.02148 -0.0549,-0.04793 -0.0693,-0.08149 -0.0101,-0.03448 -0.0107,-0.07039 -0.0112,-0.106002 -1.5e-4,-0.03539 0,-0.07078 1.4e-4,-0.106175 2.6e-4,-0.03627 2.6e-4,-0.07254 2.6e-4,-0.108802 -5e-5,-0.03149 2e-5,-0.06297 -3e-5,-0.09446 -4e-5,-0.02487 2e-5,-0.04975 -10e-6,-0.07462 0.002,-0.03957 0.0387,-0.06515 0.0586,-0.09704 0.0617,-0.141973 0.20298,-0.243493 0.32145,-0.339619 0.0389,-0.0181 0.062,-0.04267 0.0986,-0.06642 0.0528,-0.02671 0.11459,-0.02506 0.17248,-0.02619 0.0363,-9.8e-5 0.0727,7.93e-4 0.10897,0.0013 0.0248,5.29e-4 0.0496,5.29e-4 0.0745,5.29e-4 0.033,0.0074 0.0665,0.05593 0.0836,0.08432 0.0182,0.04179 0.0268,0.0868 0.0331,0.131702 0.003,0.02675 0.002,0.05368 0.002,0.08052 -0.001,0.03196 0.006,0.06341 -0.0155,0.08867 -0.15462,0.172733 -0.21148,0.25831 -0.40687,0.275839 -0.0239,0.0021 -0.0479,0.0021 -0.0718,5.29e-4 0,0 0.19096,-0.221202 0.19096,-0.221202 v 0 c 0.0227,-9.3e-5 0.0454,-7.94e-4 0.068,-0.0033 0.15633,-0.01929 0.27656,-0.167664 -0.0142,0.122883 0.0245,-0.03679 0.0322,-0.0091 0.0269,-0.07404 5.3e-4,-0.02588 5.3e-4,-0.05174 2.7e-4,-0.07761 -0.004,-0.0417 -0.0119,-0.08315 -0.0249,-0.123029 -0.0135,-0.02405 -0.038,-0.06304 -0.0617,-0.06326 -0.0249,-9.8e-5 -0.0499,-1.17e-4 -0.0748,-7.94e-4 -0.0359,-5.29e-4 -0.0719,-0.0013 -0.10784,-5.29e-4 -0.0551,0.0021 -0.11257,0.0031 -0.15881,0.03704 -0.0315,0.0254 -0.0665,0.04104 -0.0971,0.06751 -0.0857,0.07233 -0.0404,0.03553 0.14143,-0.149262 0.0178,-0.0181 -0.0937,0.08602 -0.0604,0.07293 -0.009,0.04313 -0.0344,0.05502 -0.0652,0.0792 -0.003,0.0019 -1e-5,0.0064 -2e-5,0.0096 -3e-5,0.02487 4e-5,0.04976 0,0.07464 -4e-5,0.03151 2e-5,0.06302 -4e-5,0.09452 -4e-5,0.03628 -1e-5,0.07256 -3e-5,0.108847 -2.6e-4,0.0353 -5.2e-4,0.0706 -5.2e-4,0.105902 8e-5,0.03326 -5.3e-4,0.06668 0.006,0.09952 0.003,0.02371 0.0247,0.04212 0.0428,0.05566 0.01,-5.8e-5 0.0196,-3.2e-5 0.0294,2.9e-5 0.0285,9.8e-5 0.0571,1.19e-4 0.0856,2.64e-4 0.0351,2.65e-4 0.0702,7.94e-4 0.10535,2.65e-4 0.0418,-0.0013 0.0839,-0.0049 0.12334,-0.01979 0.0607,-0.02625 0.11689,-0.05902 0.17037,-0.09802 0.0336,-0.01897 0.0633,-0.03236 0.10218,-0.03526 0.0355,-0.01074 0.0654,-0.03033 0.099,-0.04571 0.11582,-0.03727 0.0325,-0.01714 -0.12835,0.176988 -0.007,0.008 0.0168,-0.01238 0.0239,-0.0199 0.0155,-0.01633 0.14628,-0.300183 0.26056,-0.235506 0.13146,-0.129542 -0.15098,0.280821 -0.11744,0.149019 0.05,-0.132879 0.17628,-0.239167 0.28879,-0.311195 0.0952,-0.05146 0.23091,-0.219072 -0.0702,0.125159 5e-5,-0.02532 9e-5,-0.05067 7e-5,-0.076 -6e-5,-0.02869 -1e-5,-0.05739 -3e-5,-0.08608 1.1e-4,-0.0367 1.4e-4,-0.0734 2.7e-4,-0.110104 1.9e-4,-0.03751 7.9e-4,-0.07501 2.3e-4,-0.112519 -5.3e-4,-0.03839 2.6e-4,-0.07839 -0.0151,-0.114239 -0.0195,-0.03893 -0.072,-0.05915 -0.074,-0.109162 -0.0143,-0.04472 -0.0504,-0.06357 -0.0733,-0.101878 -0.0296,-0.05028 -0.0839,-0.07203 -0.13094,-0.104098 -0.0314,-0.0213 -0.055,-0.05254 -0.0907,-0.06779 -0.0425,-0.03273 -0.0856,-0.06601 -0.13444,-0.08883 -0.0517,-0.02738 -0.0973,-0.03501 -0.15695,-0.02878 -0.0569,-1.46e-4 -0.11374,-5.29e-4 -0.17059,7.94e-4 -0.0605,0.0024 -0.12119,0.0068 -0.18009,0.02185 -0.0537,0.0163 -0.10245,0.04748 -0.1584,0.05331 -0.0337,0.0046 -0.0647,0.0127 -0.093,0.03262 -0.0956,0.05605 -0.29636,0.139126 0.0628,-0.130969 -0.10448,0.104551 -0.19551,0.222825 -0.31544,0.309306 -0.0356,0.02318 -0.14922,0.125429 -0.10249,0.07445 0.19015,-0.207401 0.21,-0.241466 0.16025,-0.161308 -0.0337,0.0503 -0.0789,0.09055 -0.10534,0.144666 -0.0282,0.01902 -0.0308,0.02915 -0.0278,0.06314 -2e-5,0.02156 3e-5,0.04313 10e-6,0.0647 -5e-5,0.02855 -4e-5,0.0571 -3e-5,0.08564 -4e-5,0.03514 1e-5,0.07028 -3e-5,0.10542 -1e-5,0.04005 -4e-5,0.0801 -1.1e-4,0.120142 -2.7e-4,0.05331 -5.3e-4,0.106622 -5.3e-4,0.159933 6e-5,0.04767 -0.002,0.09607 0.006,0.143245 0.0104,0.04723 0.0272,0.08772 0.0591,0.125095 0.0409,0.0502 0.0489,0.123629 0.0995,0.169381 0.0433,0.06438 0.0754,0.134665 0.12399,0.194519 0.0396,0.03906 0.0855,0.0609 0.13401,0.08639 0.0399,0.02207 0.0824,0.01881 0.12667,0.02671 0.0527,0.01373 0.10075,0.03706 0.15151,0.05633 0.0487,0.0099 0.0982,0.0055 0.14772,0.0062 0.0303,5e-6 0.0606,3.7e-5 0.0909,1.85e-4 0.0351,1.22e-4 0.0703,5.29e-4 0.10539,1.7e-4 0.0469,-7.94e-4 0.0939,-0.0019 0.14016,-0.01003 0.0628,-0.01283 0.12237,-0.03539 0.1833,-0.05485 0.0517,-0.0079 0.10293,-0.0016 0.15482,-0.0072 0.0479,-0.01677 0.0776,-0.0608 0.12419,-0.07707 0.0258,-0.0044 0.0468,-0.02098 0.0695,-0.03345 0.0382,-0.02363 0.0799,-0.03569 0.11584,-0.06341 -0.39521,0.402831 -0.004,-0.01035 0.14057,-0.137692 0.23775,-0.191352 -0.28169,0.277463 -0.051,0.06012 0.0172,-0.03955 0.0616,-0.05943 0.0668,-0.105159 0.029,-0.05382 0.0632,-0.104587 0.0921,-0.156982 0.03,-0.04121 0.0566,-0.08109 0.0713,-0.130519 0.0337,-0.03672 0.0506,-0.07062 0.0627,-0.118695 0.0149,-0.03593 0.0558,-0.05037 0.049,-0.09316 2.7e-4,-0.04397 5.3e-4,-0.08795 9e-5,-0.131919 -7.9e-4,-0.04066 -0.002,-0.08162 -0.0163,-0.120171 -0.0208,-0.06377 -0.0605,-0.122489 -0.0597,-0.191434 -0.007,-0.06549 -0.0193,-0.132879 -0.0669,-0.181782 -0.0551,-0.06756 -0.10489,-0.139219 -0.14662,-0.21589 -0.0387,-0.0609 -0.0881,-0.112016 -0.13563,-0.165494 -0.0444,-0.05313 -0.0899,-0.104923 -0.14709,-0.14488 -0.0647,-0.05812 -0.14425,-0.09776 -0.2124,-0.151649 -0.0829,-0.05928 -0.16654,-0.118094 -0.25788,-0.163684 -0.10175,-0.0434 -0.19854,-0.0974 -0.30077,-0.14005 -0.11619,-0.03938 -0.23094,-0.08165 -0.34795,-0.118633 -0.10343,-0.03366 -0.21096,-0.05754 -0.31994,-0.04165 -0.13589,0.01762 -0.26623,0.05703 -0.39255,0.110321 -0.2623,0.100856 -0.5263,0.197408 -0.76671,0.346562 0,0 0.17744,-0.230087 0.17744,-0.230087 z"
       inkscape:connector-curvature="0" />
    <path
       style="fill:#000000;stroke-width:0.26458332"
       id="path5140"
       d="m 84.646623,72.420541 c 0.14794,-0.210317 0.30432,-0.414668 0.4659,-0.614627 0.12611,-0.172013 0.29715,-0.294465 0.45697,-0.427736 0.0644,-0.03822 0.12655,-0.07823 0.18581,-0.124042 0.0909,-0.04628 0.18948,-0.07087 0.28583,-0.103952 0.11689,-0.04854 0.24607,-0.05013 0.36543,-0.08638 0.11221,-0.04064 0.2306,-0.05312 0.34865,-0.063 0.12147,-0.0077 0.24326,-0.007 0.36491,-0.0072 0.0994,-5.29e-4 0.20013,0.02934 0.29232,0.06567 0.0975,0.04369 0.19785,0.08158 0.29315,0.130083 0.10424,0.05376 0.19054,0.134892 0.27585,0.214008 0.0832,0.08282 0.17222,0.160711 0.24594,0.252312 0.0727,0.100994 0.13937,0.206325 0.20996,0.308986 0.0673,0.08209 0.124,0.171347 0.17389,0.264882 0.047,0.08462 0.0555,0.181634 0.0886,0.27141 0.0388,0.106256 0.0471,0.220263 0.0545,0.332234 0.005,0.123717 0.005,0.247587 0.005,0.371393 -3e-5,0.08448 -2.7e-4,0.16896 -5.3e-4,0.253439 0.008,0.08785 -0.007,0.169953 -0.0308,0.254035 -0.0183,0.0941 -0.0509,0.180498 -0.0998,0.262691 -0.0481,0.09394 -0.10637,0.1812 -0.1722,0.263475 -0.12269,0.163743 -0.27284,0.303043 -0.42071,0.444148 -0.099,0.09264 -0.19627,0.189902 -0.31311,0.259847 -0.10888,0.07352 -0.22372,0.132541 -0.34142,0.189842 -0.1206,0.04041 -0.23259,0.102235 -0.35309,0.142785 -0.0748,0.04533 -0.15388,0.07966 -0.23986,0.09572 -0.0831,0.01114 -0.16693,0.01159 -0.25056,0.01201 -0.0748,-6.1e-5 -0.1496,-5.29e-4 -0.22439,-7.93e-4 -0.0956,-5.3e-4 -0.18603,-0.04364 -0.27378,-0.07772 -0.11065,-0.04469 -0.21299,-0.101669 -0.31548,-0.162023 -0.0703,-0.05933 -0.13582,-0.123299 -0.20582,-0.183267 -0.0608,-0.05148 -0.124,-0.0995 -0.1654,-0.168431 -0.0499,-0.05144 -0.0757,-0.118229 -0.10832,-0.180726 -0.0496,-0.07224 -0.0472,-0.160883 -0.0707,-0.241615 -0.0249,-0.06476 -0.0505,-0.128156 -0.0624,-0.196739 -0.008,-0.05761 -0.009,-0.115911 -0.01,-0.173984 -9e-5,-0.03172 -6e-5,-0.06345 2.6e-4,-0.09518 2.7e-4,-0.05008 2.7e-4,-0.100164 2.7e-4,-0.150247 -0.006,-0.06542 0.004,-0.122661 0.0295,-0.182472 0.0272,-0.05173 0.0316,-0.109744 0.0466,-0.165005 0.0239,-0.05765 0.0468,-0.114943 0.0603,-0.175948 0.0178,-0.04626 0.06,-0.07683 0.0837,-0.120605 0.003,-0.03905 0.0336,-0.06209 0.0503,-0.09475 0.012,-0.04022 0.0345,-0.07384 0.0597,-0.106844 0.071,-0.13399 0.19269,-0.233029 0.30777,-0.333195 0.16791,-0.158911 -0.20622,0.314412 -0.12008,0.08641 0.0224,-0.05011 0.0546,-0.09771 0.0838,-0.144891 0.0998,-0.120883 -0.0472,0.05535 0.26194,-0.263856 0.0549,-0.05669 -0.22326,0.223039 -0.1699,0.164894 0.0782,-0.08516 0.16568,-0.161372 0.24437,-0.246047 0.053,-0.05701 -0.22488,0.215233 -0.16718,0.162994 0.0841,-0.07611 0.1642,-0.156422 0.2463,-0.234632 0.0936,-0.0952 -0.0481,0.04968 -0.13888,0.127367 0.0224,-0.01982 0.0327,-0.05369 0.0554,-0.07338 0.0866,-0.07491 0.1747,-0.147976 0.26205,-0.221967 0.0492,-0.02252 0.0833,-0.05396 0.13709,-0.05716 0.0552,-0.0033 0.11057,-0.0029 0.16585,-0.0026 0.0434,2.64e-4 0.0868,5.29e-4 0.13016,7.94e-4 0.0516,9.7e-5 0.10316,3.4e-5 0.15474,8.2e-5 0.058,-0.0093 0.10117,0.02791 0.15202,0.04786 0.0568,0.01429 0.10433,0.04719 0.1491,0.08374 0.0468,0.04068 0.0963,0.07455 0.1389,0.12007 0.0322,0.05179 0.0857,0.0765 0.12914,0.114819 0.0356,0.03404 0.0757,0.06056 0.11322,0.09255 0.0392,0.0274 0.0627,0.07068 0.0829,0.112993 0.0332,0.03759 0.0531,0.08175 0.0762,0.12564 0.0352,0.06455 0.0494,0.137311 0.089,0.199208 0.0269,0.04645 0.0501,0.0944 0.0601,0.147275 0.002,0.0464 0.029,0.08361 0.0465,0.125378 0.0176,0.05316 0.0268,0.108432 0.0307,0.164145 0.004,0.05466 0.006,0.107328 -0.0149,0.158821 -0.029,0.04422 -0.0424,0.09282 -0.0507,0.144394 -0.0183,0.05634 -0.0443,0.109699 -0.0635,0.16596 -0.0101,0.05118 -0.0434,0.09179 -0.0652,0.138229 -0.025,0.0474 -0.0586,0.0892 -0.0864,0.134969 -0.0862,0.156353 -0.24709,0.229981 -0.36631,0.348025 -0.0479,0.02933 -0.097,0.05214 -0.14136,0.08649 -0.0426,0.03638 -0.10129,0.04101 -0.15486,0.04741 -0.0626,0.01169 -0.12163,0.04236 -0.18509,0.05859 -0.0549,0.014 -0.11189,0.01603 -0.16824,0.01733 -0.0392,7.93e-4 -0.0785,2.64e-4 -0.11774,6e-5 -0.0256,-1.98e-4 -0.0511,-2.22e-4 -0.0767,-2.22e-4 -0.04,-5.29e-4 -0.0777,0.0058 -0.11362,-0.01278 -0.0525,-0.01799 -0.0931,-0.04446 -0.13384,-0.08011 -0.0471,-0.0294 -0.0687,-0.07897 -0.098,-0.123926 -0.0357,-0.0723 -0.0703,-0.14505 -0.10137,-0.219532 -0.0221,-0.0585 -0.0316,-0.119716 -0.036,-0.181716 -10e-4,-0.04036 0.004,-0.07568 -0.0169,-0.110982 -0.0251,-0.03537 -0.0414,-0.07233 -0.0505,-0.11456 -0.007,-0.03024 -0.007,-0.06124 -0.007,-0.09204 -0.005,-0.03966 0.0106,-0.0646 0.0342,-0.09524 0.0246,-0.04369 0.0453,-0.08582 0.0796,-0.123245 0.10979,-0.122053 0.21361,-0.236122 0.35848,-0.306927 0.0495,-0.03987 0.11441,-0.04774 0.17632,-0.05934 0.0554,-0.0088 0.0879,-0.06791 0.13848,-0.08106 0.0228,-0.0062 0.0462,-0.0098 0.0698,-0.01056 0.0313,0.0013 0.0627,0.0011 0.0941,0.0011 0.0383,0.02212 0.0772,0.04313 0.11559,0.06507 0.0218,0.02275 0.03,0.04842 0.0574,0.06759 0.0277,0.01619 0.0371,0.05111 0.0447,0.08048 0.032,0.04391 0.0498,0.09243 0.0622,0.145005 0.01,0.04093 0.0138,0.08255 0.0151,0.124502 8e-4,0.02937 2.7e-4,0.05874 1.6e-4,0.08811 0.004,0.02995 -0.008,0.0491 -0.0267,0.07144 -0.11611,0.126574 -0.24197,0.244102 -0.38588,0.337892 -0.0406,0.03326 -0.0862,0.04477 -0.13754,0.04687 -0.046,-0.0045 -0.0745,0.02596 -0.11366,0.04882 -0.0156,0.0091 -0.031,0.01826 -0.0464,0.02756 -0.0298,-0.03316 -0.0541,-0.06776 -0.0731,-0.108214 -0.0161,-0.03373 -0.0198,-0.0715 -0.023,-0.108299 -0.002,-0.02917 5.3e-4,0.0071 -0.001,-0.01484 0,0 0.2217,-0.190396 0.2217,-0.190396 v 0 c 2.1e-4,0.02082 -5.3e-4,-0.01426 1.4e-4,0.01402 0.002,0.03369 0.003,0.06913 0.0158,0.100552 0.007,0.01677 0.0778,0.115554 0.037,0.07505 0.0155,-0.009 0.031,-0.01812 0.0465,-0.02712 0.0403,-0.02328 0.075,-0.04512 0.12361,-0.0408 0.0478,-0.0068 0.0877,-0.02596 0.1262,-0.05551 0.28481,-0.185502 -0.22578,0.250066 -0.0258,0.06726 0.0191,-0.02003 0.0435,-0.02601 0.0399,-0.0547 2.3e-4,-0.02917 5.3e-4,-0.05835 5.3e-4,-0.08752 -5.3e-4,-0.04045 -0.002,-0.0807 -0.0111,-0.120338 -0.0111,-0.05343 -0.0261,-0.102621 -0.0625,-0.144748 -0.004,-0.02339 -0.008,-0.05262 -0.0299,-0.06526 -0.0252,-0.01868 -0.0432,-0.04189 -0.0552,-0.06545 -0.034,-0.01955 -0.0678,-0.04075 -0.10432,-0.05508 -0.0308,-1.61e-4 -0.0618,-0.0011 -0.0925,5.3e-4 -0.0211,0.0034 -0.0422,0.0075 -0.0615,0.01699 -0.0439,0.03278 -0.0892,0.06344 -0.14349,0.07648 -0.0612,0.01286 -0.11853,0.02847 -0.17014,0.0649 -0.10006,0.05562 -0.28621,0.225081 0.0554,-0.09699 -0.0379,0.04425 -0.065,0.06135 -0.0815,0.120846 -0.0203,0.03033 -0.0498,0.04303 -0.0454,0.08083 -1.5e-4,0.02932 -10e-4,0.05891 0.003,0.08795 0.007,0.04026 0.0186,0.07414 0.0437,0.107217 0.0247,0.04125 0.0305,0.07215 0.0262,0.121251 0.003,0.05939 0.01,0.118107 0.0294,0.174651 0.03,0.07321 0.0645,0.143841 0.0977,0.215485 0.0283,0.04299 0.0477,0.08995 0.0925,0.118239 0.0381,0.03359 0.0785,0.05626 0.12728,0.07374 0.0336,0.01016 0.0701,0.0024 0.10486,0.0048 0.0256,7.7e-5 0.0512,8.2e-5 0.0768,2.65e-4 0.0389,2.54e-4 0.0779,5.29e-4 0.11683,-5.29e-4 0.0548,-0.0021 0.10992,-0.0062 0.16289,-0.02159 0.0631,-0.01805 0.12214,-0.05096 0.18811,-0.05629 0.0526,-0.008 0.10266,-0.01977 0.14343,-0.05641 0.0451,-0.03134 0.0972,-0.05136 0.13842,-0.08851 0.0276,-0.02463 0.0578,-0.04503 0.0861,-0.06862 0.01,-0.0081 0.0368,-0.03489 0.0279,-0.0258 -0.13375,0.137742 -0.23553,0.23518 -0.15375,0.156633 0.0354,-0.03696 0.053,-0.09172 0.0904,-0.129572 0.0203,-0.04776 0.0526,-0.08846 0.067,-0.13595 0.0181,-0.05575 0.0364,-0.111493 0.0668,-0.161978 0.007,-0.05235 0.0124,-0.107961 0.0451,-0.151424 0.0279,-0.04775 0.0288,-0.09262 0.0243,-0.147272 -0.002,-0.05316 -0.009,-0.105723 -0.0243,-0.157039 -0.0175,-0.04398 -0.0489,-0.08243 -0.051,-0.130148 -0.007,-0.05005 -0.0266,-0.09462 -0.0519,-0.138504 -0.0413,-0.0624 -0.0576,-0.133869 -0.0906,-0.200853 -0.0247,-0.04389 -0.0416,-0.09015 -0.0779,-0.12695 -0.0172,-0.03932 -0.0376,-0.07926 -0.0739,-0.104074 -0.0373,-0.0322 -0.0785,-0.0578 -0.11339,-0.09273 -0.0446,-0.0384 -0.0981,-0.06508 -0.13128,-0.116917 -0.0414,-0.04462 -0.0906,-0.07708 -0.13589,-0.117261 -0.0433,-0.03461 -0.0891,-0.06328 -0.14315,-0.07796 -0.0476,-0.02096 -0.0886,-0.04865 -0.14341,-0.04017 -0.0516,4e-5 -0.10319,-3.2e-5 -0.15479,-1.24e-4 -0.0434,-6.4e-5 -0.0868,-2.65e-4 -0.13022,-7.94e-4 -0.0542,-1.03e-4 -0.10869,-0.0011 -0.16262,0.0053 -0.047,0.0113 -0.084,0.0489 -0.13171,0.06082 0.40347,-0.475332 -0.11773,0.1494 -0.17216,0.173072 0.0543,-0.05726 0.21929,-0.226915 0.16284,-0.171797 -0.0817,0.07976 -0.16068,0.162325 -0.23861,0.245774 -0.0522,0.05586 0.21339,-0.218897 0.16129,-0.162983 -0.78276,0.839922 0.0941,-0.118086 -0.0943,0.09546 -0.0289,0.04585 -0.0516,0.09984 -0.09,0.136501 -0.0118,0.147868 -0.17284,0.238784 -0.27863,0.333759 -0.15744,0.144666 0.244,-0.288425 0.0992,-0.07613 -0.0256,0.03117 -0.0555,0.06052 -0.0644,0.100759 -0.0135,0.03745 -0.0437,0.05966 -0.0515,0.093 -0.0104,0.05034 -0.0493,0.08514 -0.0862,0.117769 -0.012,0.06249 -0.0303,0.121777 -0.0576,0.179483 -0.0255,0.05164 -0.0156,0.114432 -0.046,0.165806 -0.0234,0.05907 -0.0482,0.107027 -0.0367,0.173591 -6e-5,0.05007 0,0.10015 -4e-5,0.150227 4e-5,0.03169 -7.9e-4,0.06338 -5.3e-4,0.09508 7e-5,0.05697 5.3e-4,0.114125 0.007,0.170815 0.009,0.06796 0.0335,0.130058 0.0592,0.193344 0.0274,0.07815 0.0187,0.166677 0.0673,0.237995 0.0326,0.06209 0.0572,0.128977 0.10754,0.179626 0.0379,0.0673 0.10079,0.111609 0.15834,0.1617 0.0686,0.05893 0.1331,0.121552 0.2022,0.179668 0.10094,0.05985 0.20252,0.115329 0.31188,0.158925 0.0853,0.03321 0.17272,0.07262 0.266,0.07033 0.0747,2.65e-4 0.14943,7.94e-4 0.22415,5.29e-4 0.0821,-7.93e-4 0.1648,-0.0013 0.24594,-0.01582 0.084,-0.02064 0.15965,-0.05953 0.23681,-0.09791 0.11839,-0.04412 0.23223,-0.100015 0.35044,-0.14455 0.11761,-0.05632 0.22939,-0.120824 0.33883,-0.191912 0.1127,-0.07516 0.21056,-0.170257 0.30844,-0.263412 0.0975,-0.09411 0.0558,-0.05447 -0.11524,0.11769 -0.078,0.07851 0.0743,-0.08509 0.097,-0.114922 0.0102,-0.01339 0.0221,-0.02529 0.0332,-0.03794 0.0675,-0.08018 0.12915,-0.165362 0.17444,-0.260305 0.0513,-0.07981 0.0896,-0.161708 0.10496,-0.25613 0.0225,-0.08278 0.0464,-0.160679 0.0356,-0.247962 1.5e-4,-0.08453 2.6e-4,-0.169064 5.3e-4,-0.253593 2.1e-4,-0.123349 5.2e-4,-0.246742 -0.004,-0.37003 -0.006,-0.109453 -0.0126,-0.221266 -0.0488,-0.325634 -0.034,-0.08876 -0.0428,-0.183628 -0.086,-0.268806 -0.0484,-0.09305 -0.10486,-0.181303 -0.17144,-0.262501 -0.0701,-0.102163 -0.13673,-0.206668 -0.20853,-0.307443 -0.0722,-0.09096 -0.16102,-0.167169 -0.2429,-0.249245 -0.0832,-0.0774 -0.16765,-0.156467 -0.26991,-0.208283 -0.095,-0.04698 -0.19395,-0.0856 -0.29104,-0.127974 -0.0908,-0.03312 -0.18682,-0.06204 -0.28427,-0.05874 -0.12103,1.74e-4 -0.24224,-1.43e-4 -0.36301,0.0088 -0.11706,0.01066 -0.23318,0.02727 -0.34467,0.06635 -0.12117,0.02941 -0.24695,0.04113 -0.36413,0.08724 -0.0957,0.03045 -0.19168,0.05798 -0.27857,0.110244 -0.0599,0.04443 -0.1244,0.08117 -0.18523,0.124182 -0.0383,0.02853 -0.0765,0.05524 -0.11218,0.08713 -0.0145,0.01299 -0.0566,0.05352 -0.0432,0.0394 0.0345,-0.03624 0.25971,-0.264091 0.10603,-0.106172 -0.1604,0.200737 -0.32063,0.401976 -0.46727,0.613252 0,0 -0.23209,0.174892 -0.23209,0.174892 z"
       inkscape:connector-curvature="0" />
  </g>
</svg>
